;TYPE=PLATED
;Layer: PTH_Through
;EasyEDA Pro v2.2.43.4, 2025-11-30 00:10:42
;Gerber Generator version 0.3
M48
METRIC,LZ,0000.00000
;Hole size 1 = 0.80000 METRIC
T01C0.80000
;Hole size 2 = 0.80000 METRIC
T02C0.80000
;Hole size 3 = 1.00000 METRIC
T03C1.00000
;Hole size 4 = 2.00000 METRIC
T04C2.00000
%
G05
G90
T01
X3.587Y46.38424
X3.587Y56.58381
X20.669Y83.17321
X20.669Y93.37279
X24.60346Y83.20318
X24.60346Y93.40276
X9.62Y88.38021
X9.62Y98.57979
X12.3561Y102.38314
X22.55567Y102.38314
T02
X37.25846Y65.90747
X37.25846Y68.44747
X37.25846Y70.98747
X37.25846Y73.52747
X37.25846Y76.06747
X37.25846Y43.85297
X37.25846Y46.39297
X37.25846Y48.93297
X37.25846Y51.47297
X37.25846Y54.01297
X37.25846Y95.54197
X37.25846Y93.00197
X37.25846Y90.46197
X37.25846Y87.92197
X4.79146Y60.48997
X4.79146Y63.02997
X4.79146Y65.56997
X4.79146Y68.10997
X4.79146Y70.64997
X4.79146Y73.18997
X4.79146Y75.72997
X4.79146Y78.26997
X4.79146Y80.80997
X4.79146Y83.34997
X4.79146Y85.88997
X4.79146Y88.42997
X4.79146Y90.96997
X4.79146Y93.50997
X4.79146Y96.04997
X29.891Y60.48997
X29.891Y63.02997
X29.891Y65.56997
X29.891Y68.10997
X29.891Y70.64997
X29.891Y73.18997
X29.891Y75.72997
X29.891Y78.26997
X29.891Y80.80997
X29.891Y83.34997
X29.891Y85.88997
X29.891Y88.42997
X29.891Y90.96997
X29.891Y93.50997
X29.891Y96.04997
X37.27845Y99.805
X37.27845Y102.345
T03
X34.753Y6.51256
X34.753Y11.52144
X34.6257Y31.81609
X34.6257Y36.82497
X34.6257Y19.16433
X34.6257Y24.17321
X6.97196Y3.51187
X24.44796Y3.51187
X6.97196Y42.98787
X24.44796Y42.98787
X8.22705Y49.83087
X17.34105Y49.83087
X8.2269Y65.07092
X17.34105Y65.07092
T04
X28.8Y2.0
X10.0Y108.0
M30