G04 Layer: BottomLayer*
G04 EasyEDA Pro v2.2.43.4, 2025-11-30 00:10:42*
G04 Gerber Generator version 0.3*
G04 Scale: 100 percent, Rotated: No, Reflected: No*
G04 Dimensions in millimeters*
G04 Leading zeros omitted, absolute positions, 4 integers and 5 decimals*
G04 Generated by custom config*
%FSLAX45Y45*%
%MOMM*%
%ADD10C,0.2032*%
%ADD11C,1.524*%
%ADD12R,2.3X2.0*%
%ADD13C,4.0*%
%ADD14R,2.0X2.3*%
%ADD15R,3.5X3.5*%
%ADD16R,3.0X3.0*%
%ADD17C,0.721*%
%ADD18C,1.1900*%
%ADD19C,1.1887*%
%ADD20C,0.7208*%
%ADD21C,1.189*%
G75*


G04 Copper Start*
G36*
G01X1270Y1270D02*
G01X1270Y4738396D01*
G01X183286Y4738396D01*
G01X183286Y4538396D01*
G01X184801Y4524952D01*
G01X189269Y4512183D01*
G01X196467Y4500728D01*
G01X206033Y4491162D01*
G01X217487Y4483965D01*
G01X230257Y4479496D01*
G01X243700Y4477982D01*
G01X247029Y4477982D01*
G01X256416Y4463558D01*
G01X262255Y4447370D01*
G01X264236Y4430275D01*
G01X264236Y789330D01*
G01X264236Y789330D01*
G01X266089Y770512D01*
G01X271578Y752418D01*
G01X280491Y735743D01*
G01X292487Y721126D01*
G01X434127Y579486D01*
G01X450228Y560767D01*
G01X463348Y539852D01*
G01X461783Y526187D01*
G01X461783Y176187D01*
G01X463297Y162743D01*
G01X467765Y149974D01*
G01X474963Y138519D01*
G01X484529Y128953D01*
G01X495984Y121756D01*
G01X508753Y117288D01*
G01X522196Y115773D01*
G01X872197Y115773D01*
G01X885640Y117288D01*
G01X898409Y121756D01*
G01X909864Y128953D01*
G01X919430Y138519D01*
G01X926628Y149974D01*
G01X931096Y162743D01*
G01X932610Y176187D01*
G01X932610Y200000D01*
G01X2719586Y200000D01*
G01X2721561Y174906D01*
G01X2727437Y150429D01*
G01X2737070Y127174D01*
G01X2750222Y105711D01*
G01X2766570Y86570D01*
G01X2785711Y70222D01*
G01X2807174Y57070D01*
G01X2830429Y47437D01*
G01X2854906Y41561D01*
G01X2880000Y39586D01*
G01X2905094Y41561D01*
G01X2929571Y47437D01*
G01X2952826Y57070D01*
G01X2974289Y70222D01*
G01X2993430Y86570D01*
G01X3009778Y105711D01*
G01X3022930Y127174D01*
G01X3032563Y150429D01*
G01X3038439Y174906D01*
G01X3040414Y200000D01*
G01X3038439Y225094D01*
G01X3032563Y249571D01*
G01X3022930Y272827D01*
G01X3009778Y294289D01*
G01X2993430Y313430D01*
G01X2974289Y329778D01*
G01X2952826Y342930D01*
G01X2929571Y352563D01*
G01X2905094Y358439D01*
G01X2880000Y360414D01*
G01X2854906Y358439D01*
G01X2830429Y352563D01*
G01X2807174Y342930D01*
G01X2785711Y329778D01*
G01X2766570Y313430D01*
G01X2750222Y294289D01*
G01X2737070Y272827D01*
G01X2727437Y249571D01*
G01X2721561Y225094D01*
G01X2719586Y200000D01*
G01X2719586Y200000D01*
G01X932610Y200000D01*
G01X932610Y509169D01*
G01X932610Y509169D01*
G01X960499Y550033D01*
G01X991347Y588713D01*
G01X1024984Y624993D01*
G01X1440638Y1040646D01*
G01X3135603Y1040646D01*
G01X3144847Y1040260D01*
G01X3153644Y1039215D01*
G01X3163200Y1037417D01*
G01X3173363Y1034859D01*
G01X3183983Y1031564D01*
G01X3194919Y1027569D01*
G01X3206038Y1022927D01*
G01X3217213Y1017700D01*
G01X3228324Y1011956D01*
G01X3239258Y1005768D01*
G01X3249903Y999216D01*
G01X3260151Y992385D01*
G01X3269893Y985365D01*
G01X3279024Y978254D01*
G01X3287433Y971161D01*
G01X3295565Y963701D01*
G01X3319532Y943453D01*
G01X3345761Y926235D01*
G01X3373870Y912295D01*
G01X3403452Y901838D01*
G01X3434076Y895014D01*
G01X3465299Y891922D01*
G01X3496667Y892608D01*
G01X3527725Y897062D01*
G01X3558022Y905218D01*
G01X3587118Y916959D01*
G01X3614591Y932113D01*
G01X3640042Y950462D01*
G01X3663101Y971738D01*
G01X3683434Y995634D01*
G01X3700746Y1021801D01*
G01X3714786Y1049860D01*
G01X3725349Y1079404D01*
G01X3732282Y1110004D01*
G01X3735485Y1141216D01*
G01X3734910Y1172586D01*
G01X3730568Y1203659D01*
G01X3722520Y1233985D01*
G01X3710883Y1263123D01*
G01X3695826Y1290650D01*
G01X3677568Y1316166D01*
G01X3656374Y1339301D01*
G01X3632551Y1359719D01*
G01X3606446Y1377124D01*
G01X3578437Y1391264D01*
G01X3548931Y1401932D01*
G01X3518356Y1408974D01*
G01X3487156Y1412288D01*
G01X3455784Y1411826D01*
G01X3424695Y1407594D01*
G01X3394341Y1399653D01*
G01X3365162Y1388120D01*
G01X3337581Y1373162D01*
G01X3312000Y1354995D01*
G01X3292249Y1339815D01*
G01X3282576Y1332963D01*
G01X3272284Y1326088D01*
G01X3261744Y1319478D01*
G01X3251021Y1313199D01*
G01X3240179Y1307316D01*
G01X3229290Y1301890D01*
G01X3218423Y1296979D01*
G01X3207654Y1292635D01*
G01X3197061Y1288905D01*
G01X3186722Y1285828D01*
G01X3176719Y1283430D01*
G01X3167130Y1281727D01*
G01X3158024Y1280719D01*
G01X3148234Y1280344D01*
G01X1390995Y1280344D01*
G01X1372246Y1278869D01*
G01X1353959Y1274478D01*
G01X1336584Y1267281D01*
G01X1320549Y1257455D01*
G01X1306249Y1245241D01*
G01X723635Y662628D01*
G01X697192Y639060D01*
G01X668238Y618655D01*
G01X660634Y625793D01*
G01X457144Y829282D01*
G01X457144Y4430275D01*
G01X458313Y4443441D01*
G01X461783Y4456195D01*
G01X461783Y4123787D01*
G01X463297Y4110343D01*
G01X467765Y4097574D01*
G01X474963Y4086119D01*
G01X484529Y4076553D01*
G01X495984Y4069356D01*
G01X508753Y4064887D01*
G01X522196Y4063373D01*
G01X662264Y4063373D01*
G01X694115Y4061343D01*
G01X725463Y4055347D01*
G01X755817Y4045481D01*
G01X784699Y4031899D01*
G01X811657Y4014814D01*
G01X1229365Y3597105D01*
G01X1243668Y3584890D01*
G01X1259705Y3575062D01*
G01X1277082Y3567864D01*
G01X1295371Y3563473D01*
G01X1314122Y3561998D01*
G01X2634219Y3561998D01*
G01X2634219Y3080317D01*
G01X2635695Y3061569D01*
G01X2640085Y3043282D01*
G01X2647282Y3025907D01*
G01X2657108Y3009872D01*
G01X2669322Y2995571D01*
G01X3137694Y2527200D01*
G01X3144999Y2519399D01*
G01X3151187Y2511884D01*
G01X3156998Y2503889D01*
G01X3162466Y2495395D01*
G01X3167615Y2486394D01*
G01X3172464Y2476887D01*
G01X3177029Y2466886D01*
G01X3181325Y2456411D01*
G01X3185369Y2445488D01*
G01X3189075Y2434465D01*
G01X3196227Y2410245D01*
G01X3202637Y2385226D01*
G01X3208719Y2359226D01*
G01X3217549Y2329116D01*
G01X3229936Y2300287D01*
G01X3245702Y2273156D01*
G01X3264615Y2248119D01*
G01X3286403Y2225538D01*
G01X3310749Y2205742D01*
G01X3337298Y2189017D01*
G01X3365667Y2175608D01*
G01X3395442Y2165707D01*
G01X3426192Y2159460D01*
G01X3457471Y2156957D01*
G01X3488823Y2158233D01*
G01X3519794Y2163272D01*
G01X3549934Y2171999D01*
G01X3578806Y2184287D01*
G01X3605991Y2199959D01*
G01X3631093Y2218787D01*
G01X3653748Y2240497D01*
G01X3673627Y2264775D01*
G01X3690443Y2291267D01*
G01X3703950Y2319590D01*
G01X3713952Y2349331D01*
G01X3720305Y2380059D01*
G01X3722915Y2411329D01*
G01X3721746Y2442685D01*
G01X3716814Y2473674D01*
G01X3708190Y2503844D01*
G01X3696000Y2532757D01*
G01X3680422Y2559995D01*
G01X3661680Y2585162D01*
G01X3640048Y2607891D01*
G01X3615838Y2627854D01*
G01X3589404Y2644760D01*
G01X3561128Y2658364D01*
G01X3531421Y2668468D01*
G01X3500714Y2674926D01*
G01X3469454Y2677643D01*
G01X3438094Y2676582D01*
G01X3428831Y2676024D01*
G01X3419512Y2676103D01*
G01X3409076Y2676812D01*
G01X3397796Y2678175D01*
G01X3385913Y2680189D01*
G01X3373651Y2682831D01*
G01X3361219Y2686067D01*
G01X3348815Y2689852D01*
G01X3336634Y2694130D01*
G01X3324869Y2698839D01*
G01X3313712Y2703900D01*
G01X3303358Y2709218D01*
G01X3294005Y2714674D01*
G01X3285854Y2720115D01*
G01X3279098Y2725337D01*
G01X3272772Y2731106D01*
G01X2873917Y3129960D01*
G01X2873917Y3562013D01*
G01X3129553Y3562013D01*
G01X3139084Y3561632D01*
G01X3148038Y3560606D01*
G01X3157604Y3558857D01*
G01X3167674Y3556384D01*
G01X3178137Y3553202D01*
G01X3188887Y3549346D01*
G01X3199815Y3544859D01*
G01X3210823Y3539795D01*
G01X3221814Y3534215D01*
G01X3232697Y3528182D01*
G01X3243383Y3521767D01*
G01X3253789Y3515042D01*
G01X3263829Y3508084D01*
G01X3273421Y3500973D01*
G01X3282482Y3493795D01*
G01X3291352Y3486283D01*
G01X3316202Y3467110D01*
G01X3343178Y3451065D01*
G01X3371888Y3438382D01*
G01X3401916Y3429245D01*
G01X3432825Y3423788D01*
G01X3464166Y3422088D01*
G01X3495484Y3424172D01*
G01X3526323Y3430008D01*
G01X3556237Y3439512D01*
G01X3584790Y3452545D01*
G01X3611567Y3468920D01*
G01X3636180Y3488396D01*
G01X3658271Y3510693D01*
G01X3677519Y3535485D01*
G01X3693644Y3562413D01*
G01X3706413Y3591085D01*
G01X3715639Y3621086D01*
G01X3721190Y3651978D01*
G01X3722983Y3683314D01*
G01X3722983Y3683314D01*
G01X3720993Y3714638D01*
G01X3715249Y3745495D01*
G01X3705835Y3775436D01*
G01X3692886Y3804028D01*
G01X3676592Y3830854D01*
G01X3657189Y3855525D01*
G01X3634959Y3877683D01*
G01X3610224Y3897005D01*
G01X3583345Y3913211D01*
G01X3554711Y3926065D01*
G01X3524738Y3935381D01*
G01X3493863Y3941024D01*
G01X3462533Y3942911D01*
G01X3431203Y3941015D01*
G01X3400329Y3935363D01*
G01X3370359Y3926039D01*
G01X3341729Y3913176D01*
G01X3314854Y3896962D01*
G01X3290125Y3877633D01*
G01X3281361Y3870126D01*
G01X3272391Y3862955D01*
G01X3262864Y3855841D01*
G01X3252865Y3848872D01*
G01X3242483Y3842131D01*
G01X3231802Y3835695D01*
G01X3220912Y3829639D01*
G01X3209904Y3824034D01*
G01X3198873Y3818946D01*
G01X3187918Y3814437D01*
G01X3177143Y3810561D01*
G01X3166657Y3807363D01*
G01X3156575Y3804877D01*
G01X3147012Y3803121D01*
G01X3138081Y3802092D01*
G01X3128592Y3801710D01*
G01X2755963Y3801710D01*
G01X2754068Y3801725D01*
G01X1363771Y3801725D01*
G01X981169Y4184327D01*
G01X964084Y4211285D01*
G01X950502Y4240167D01*
G01X940636Y4270520D01*
G01X934641Y4301868D01*
G01X932610Y4333720D01*
G01X932610Y4473787D01*
G01X931096Y4487230D01*
G01X926628Y4499999D01*
G01X919430Y4511454D01*
G01X909864Y4521020D01*
G01X898409Y4528218D01*
G01X885640Y4532686D01*
G01X872197Y4534201D01*
G01X548738Y4534201D01*
G01X564849Y4539973D01*
G01X581850Y4541932D01*
G01X1389395Y4541932D01*
G01X1408215Y4543785D01*
G01X1426311Y4549275D01*
G01X1442988Y4558189D01*
G01X1457606Y4570185D01*
G01X1636240Y4748820D01*
G01X1653464Y4759075D01*
G01X1672052Y4766577D01*
G01X1691569Y4771150D01*
G01X1711556Y4772686D01*
G01X1884100Y4772686D01*
G01X1897543Y4774201D01*
G01X1910312Y4778669D01*
G01X1921767Y4785867D01*
G01X1931333Y4795433D01*
G01X1938531Y4806887D01*
G01X1942999Y4819657D01*
G01X1944514Y4833100D01*
G01X1944514Y5133100D01*
G01X1942999Y5146543D01*
G01X1938531Y5159313D01*
G01X1931333Y5170767D01*
G01X1921767Y5180333D01*
G01X1910312Y5187531D01*
G01X1897543Y5191999D01*
G01X1884100Y5193514D01*
G01X1584100Y5193514D01*
G01X1570657Y5191999D01*
G01X1557887Y5187531D01*
G01X1546433Y5180333D01*
G01X1536866Y5170767D01*
G01X1529669Y5159313D01*
G01X1525201Y5146543D01*
G01X1523686Y5133100D01*
G01X1523686Y4960556D01*
G01X1522150Y4940569D01*
G01X1517577Y4921053D01*
G01X1510075Y4902464D01*
G01X1499820Y4885240D01*
G01X1349439Y4734859D01*
G01X581850Y4734859D01*
G01X568323Y4736093D01*
G01X555243Y4739754D01*
G01X543040Y4745720D01*
G01X532118Y4753796D01*
G01X527382Y4766111D01*
G01X520084Y4777104D01*
G01X510575Y4786251D01*
G01X499306Y4793115D01*
G01X486816Y4797369D01*
G01X473700Y4798810D01*
G01X243700Y4798810D01*
G01X230257Y4797295D01*
G01X217487Y4792827D01*
G01X206033Y4785629D01*
G01X196467Y4776063D01*
G01X189269Y4764608D01*
G01X184801Y4751839D01*
G01X183286Y4738396D01*
G01X1270Y4738396D01*
G01X1270Y5817367D01*
G01X38509Y5817367D01*
G01X40362Y5798548D01*
G01X45852Y5780452D01*
G01X54766Y5763775D01*
G01X66763Y5749157D01*
G01X159419Y5656501D01*
G01X169674Y5639277D01*
G01X177177Y5620688D01*
G01X181750Y5601171D01*
G01X183286Y5581184D01*
G01X183286Y5558409D01*
G01X184801Y5544965D01*
G01X189269Y5532196D01*
G01X196467Y5520741D01*
G01X206033Y5511175D01*
G01X217487Y5503978D01*
G01X230257Y5499510D01*
G01X243700Y5497995D01*
G01X473700Y5497995D01*
G01X487143Y5499510D01*
G01X499913Y5503978D01*
G01X511368Y5511175D01*
G01X520934Y5520741D01*
G01X528131Y5532196D01*
G01X532599Y5544965D01*
G01X534114Y5558409D01*
G01X534114Y5758409D01*
G01X532599Y5771852D01*
G01X528131Y5784621D01*
G01X520934Y5796076D01*
G01X511368Y5805642D01*
G01X499913Y5812840D01*
G01X487143Y5817308D01*
G01X473700Y5818823D01*
G01X321387Y5818823D01*
G01X301401Y5820359D01*
G01X281884Y5824932D01*
G01X263295Y5832434D01*
G01X246071Y5842690D01*
G01X231437Y5857324D01*
G01X231437Y8520623D01*
G01X303732Y8592919D01*
G01X303732Y8488997D01*
G01X305346Y8475126D01*
G01X310101Y8461997D01*
G01X305346Y8448868D01*
G01X303732Y8434997D01*
G01X303732Y8234997D01*
G01X305346Y8221126D01*
G01X310101Y8207997D01*
G01X305346Y8194868D01*
G01X303732Y8180997D01*
G01X303732Y7980997D01*
G01X305346Y7967126D01*
G01X310101Y7953997D01*
G01X305346Y7940868D01*
G01X303732Y7926997D01*
G01X303732Y7726997D01*
G01X305346Y7713126D01*
G01X310101Y7699997D01*
G01X305346Y7686868D01*
G01X303732Y7672997D01*
G01X303732Y7472997D01*
G01X305346Y7459126D01*
G01X310101Y7445997D01*
G01X305346Y7432868D01*
G01X303732Y7418997D01*
G01X303732Y7218997D01*
G01X305346Y7205126D01*
G01X310101Y7191997D01*
G01X305346Y7178868D01*
G01X303732Y7164997D01*
G01X303732Y6964997D01*
G01X305346Y6951126D01*
G01X310101Y6937997D01*
G01X305346Y6924868D01*
G01X303732Y6910997D01*
G01X303732Y6710997D01*
G01X305346Y6697126D01*
G01X310101Y6683997D01*
G01X305346Y6670868D01*
G01X303732Y6656997D01*
G01X303732Y6456997D01*
G01X305247Y6443554D01*
G01X309715Y6430784D01*
G01X316913Y6419330D01*
G01X326479Y6409764D01*
G01X337933Y6402566D01*
G01X350703Y6398098D01*
G01X364146Y6396583D01*
G01X594146Y6396583D01*
G01X607589Y6398098D01*
G01X620359Y6402566D01*
G01X631814Y6409764D01*
G01X641380Y6419330D01*
G01X648577Y6430784D01*
G01X653045Y6443554D01*
G01X654560Y6456997D01*
G01X654560Y6656997D01*
G01X652946Y6670868D01*
G01X648191Y6683997D01*
G01X652946Y6697126D01*
G01X654560Y6710997D01*
G01X654560Y6910997D01*
G01X652946Y6924868D01*
G01X648191Y6937997D01*
G01X652564Y6949597D01*
G01X663486Y6957673D01*
G01X675689Y6963639D01*
G01X688769Y6967299D01*
G01X702296Y6968533D01*
G01X1674846Y6968533D01*
G01X1914236Y6729143D01*
G01X1914236Y6709461D01*
G01X1904712Y6713889D01*
G01X1894564Y6716601D01*
G01X1884100Y6717514D01*
G01X1584100Y6717514D01*
G01X1570657Y6715999D01*
G01X1557887Y6711531D01*
G01X1546433Y6704333D01*
G01X1536866Y6694767D01*
G01X1529669Y6683313D01*
G01X1525201Y6670543D01*
G01X1523686Y6657100D01*
G01X1523686Y6484556D01*
G01X1522150Y6464569D01*
G01X1517577Y6445053D01*
G01X1510075Y6426464D01*
G01X1499820Y6409240D01*
G01X1236040Y6145461D01*
G01X702296Y6145461D01*
G01X688769Y6146695D01*
G01X675689Y6150355D01*
G01X663486Y6156322D01*
G01X652564Y6164397D01*
G01X647828Y6176712D01*
G01X640531Y6187705D01*
G01X631021Y6196852D01*
G01X619752Y6203716D01*
G01X607262Y6207970D01*
G01X594146Y6209411D01*
G01X364146Y6209411D01*
G01X350703Y6207896D01*
G01X337933Y6203428D01*
G01X326479Y6196231D01*
G01X316913Y6186665D01*
G01X309715Y6175210D01*
G01X305247Y6162440D01*
G01X303732Y6148997D01*
G01X303732Y5948997D01*
G01X305247Y5935554D01*
G01X309715Y5922784D01*
G01X316913Y5911330D01*
G01X326479Y5901764D01*
G01X337933Y5894566D01*
G01X350703Y5890098D01*
G01X364146Y5888583D01*
G01X594146Y5888583D01*
G01X607262Y5890024D01*
G01X619752Y5894278D01*
G01X631021Y5901142D01*
G01X640531Y5910289D01*
G01X647828Y5921282D01*
G01X652564Y5933597D01*
G01X663486Y5941673D01*
G01X675689Y5947639D01*
G01X688769Y5951299D01*
G01X702296Y5952533D01*
G01X1275997Y5952533D01*
G01X1294816Y5954387D01*
G01X1312912Y5959876D01*
G01X1329589Y5968790D01*
G01X1344207Y5980787D01*
G01X1636240Y6272820D01*
G01X1653464Y6283075D01*
G01X1672052Y6290577D01*
G01X1691569Y6295150D01*
G01X1711556Y6296686D01*
G01X1884100Y6296686D01*
G01X1894564Y6297599D01*
G01X1904712Y6300311D01*
G01X1914236Y6304739D01*
G01X1914236Y5537200D01*
G01X1916090Y5518381D01*
G01X1921579Y5500285D01*
G01X1930493Y5483608D01*
G01X1942490Y5468990D01*
G01X3098190Y4313290D01*
G01X3098190Y4313290D01*
G01X3112808Y4301293D01*
G01X3129485Y4292379D01*
G01X3147581Y4286890D01*
G01X3166400Y4285036D01*
G01X3502696Y4285036D01*
G01X3516781Y4283698D01*
G01X3530362Y4279730D01*
G01X3542953Y4273275D01*
G01X3554102Y4264563D01*
G01X3560795Y4251464D01*
G01X3570455Y4240370D01*
G01X3582510Y4231941D01*
G01X3596245Y4226674D01*
G01X3610846Y4224883D01*
G01X3840846Y4224883D01*
G01X3854290Y4226398D01*
G01X3867059Y4230866D01*
G01X3878514Y4238064D01*
G01X3888080Y4247630D01*
G01X3895277Y4259084D01*
G01X3899745Y4271854D01*
G01X3901260Y4285297D01*
G01X3901260Y4485297D01*
G01X3899646Y4499168D01*
G01X3894891Y4512297D01*
G01X3899646Y4525426D01*
G01X3901260Y4539297D01*
G01X3901260Y4739297D01*
G01X3899646Y4753168D01*
G01X3894891Y4766297D01*
G01X3899646Y4779426D01*
G01X3901260Y4793297D01*
G01X3901260Y4993297D01*
G01X3899646Y5007168D01*
G01X3894891Y5020297D01*
G01X3899646Y5033426D01*
G01X3901260Y5047297D01*
G01X3901260Y5247297D01*
G01X3899745Y5260740D01*
G01X3895277Y5273510D01*
G01X3888080Y5284965D01*
G01X3878514Y5294531D01*
G01X3867059Y5301728D01*
G01X3854290Y5306196D01*
G01X3840846Y5307711D01*
G01X3610846Y5307711D01*
G01X3597403Y5306196D01*
G01X3584634Y5301728D01*
G01X3573179Y5294531D01*
G01X3563613Y5284965D01*
G01X3556415Y5273510D01*
G01X3551947Y5260740D01*
G01X3550432Y5247297D01*
G01X3550432Y5222406D01*
G01X3170826Y5222406D01*
G01X2604458Y5788774D01*
G01X2604458Y6013401D01*
G01X2637072Y5980787D01*
G01X2651690Y5968790D01*
G01X2668367Y5959876D01*
G01X2686463Y5954387D01*
G01X2705282Y5952533D01*
G01X2765950Y5952533D01*
G01X2779477Y5951299D01*
G01X2792557Y5947639D01*
G01X2804760Y5941673D01*
G01X2815682Y5933597D01*
G01X2820418Y5921282D01*
G01X2827715Y5910289D01*
G01X2837225Y5901142D01*
G01X2848494Y5894278D01*
G01X2860984Y5890024D01*
G01X2874100Y5888583D01*
G01X3104100Y5888583D01*
G01X3117543Y5890098D01*
G01X3130313Y5894566D01*
G01X3141767Y5901764D01*
G01X3151333Y5911330D01*
G01X3158531Y5922784D01*
G01X3162999Y5935554D01*
G01X3164514Y5948997D01*
G01X3164514Y6148997D01*
G01X3162999Y6162440D01*
G01X3158531Y6175210D01*
G01X3151333Y6186665D01*
G01X3141767Y6196231D01*
G01X3130313Y6203428D01*
G01X3117543Y6207896D01*
G01X3104100Y6209411D01*
G01X2874100Y6209411D01*
G01X2860984Y6207970D01*
G01X2848494Y6203716D01*
G01X2837225Y6196852D01*
G01X2827716Y6187705D01*
G01X2820418Y6176712D01*
G01X2815682Y6164397D01*
G01X2804760Y6156322D01*
G01X2792557Y6150355D01*
G01X2779477Y6146695D01*
G01X2765950Y6145461D01*
G01X2750764Y6145461D01*
G01X2750764Y7620000D01*
G01X2748910Y7638819D01*
G01X2743421Y7656915D01*
G01X2734507Y7673592D01*
G01X2722510Y7688210D01*
G01X2556810Y7853911D01*
G01X2556810Y8112140D01*
G01X2558793Y8129246D01*
G01X2564636Y8145444D01*
G01X2574031Y8159876D01*
G01X2575346Y8159876D01*
G01X2588789Y8161391D01*
G01X2601559Y8165859D01*
G01X2613014Y8173057D01*
G01X2622580Y8182623D01*
G01X2629777Y8194078D01*
G01X2634245Y8206847D01*
G01X2635760Y8220290D01*
G01X2635760Y8420291D01*
G01X2634245Y8433734D01*
G01X2629777Y8446503D01*
G01X2622580Y8457958D01*
G01X2613014Y8467524D01*
G01X2601559Y8474722D01*
G01X2588789Y8479190D01*
G01X2575346Y8480704D01*
G01X2345346Y8480704D01*
G01X2331892Y8479177D01*
G01X2319116Y8474693D01*
G01X2307657Y8467479D01*
G01X2298091Y8457896D01*
G01X2290897Y8446425D01*
G01X2286436Y8433641D01*
G01X2284932Y8420184D01*
G01X2274792Y8413103D01*
G01X2263623Y8407789D01*
G01X2252414Y8413126D01*
G01X2242242Y8420244D01*
G01X2239571Y8435292D01*
G01X2233209Y8449188D01*
G01X2223563Y8461043D01*
G01X2211251Y8470098D01*
G01X2197061Y8475774D01*
G01X2181900Y8477707D01*
G01X1960510Y8477707D01*
G01X1937642Y8487050D01*
G01X1916538Y8499889D01*
G01X1897729Y8515902D01*
G01X1862856Y8550775D01*
G01X1862856Y9648352D01*
G01X1937181Y9722678D01*
G01X2816331Y9722678D01*
G01X2814351Y9713936D01*
G01X2813686Y9704997D01*
G01X2813686Y9504997D01*
G01X2815300Y9491126D01*
G01X2820055Y9477997D01*
G01X2815669Y9466350D01*
G01X2813763Y9454052D01*
G01X2799314Y9444624D01*
G01X2783088Y9438758D01*
G01X2765950Y9436768D01*
G01X2683496Y9436768D01*
G01X2669969Y9438001D01*
G01X2656889Y9441662D01*
G01X2644686Y9447628D01*
G01X2633764Y9455704D01*
G01X2629028Y9468019D01*
G01X2621731Y9479012D01*
G01X2612221Y9488159D01*
G01X2600952Y9495023D01*
G01X2588462Y9499277D01*
G01X2575346Y9500718D01*
G01X2345346Y9500718D01*
G01X2331903Y9499203D01*
G01X2319133Y9494735D01*
G01X2307679Y9487537D01*
G01X2298113Y9477971D01*
G01X2290915Y9466516D01*
G01X2286447Y9453747D01*
G01X2284932Y9440304D01*
G01X2284932Y9240304D01*
G01X2286447Y9226860D01*
G01X2290915Y9214091D01*
G01X2298113Y9202636D01*
G01X2307679Y9193070D01*
G01X2319133Y9185873D01*
G01X2331903Y9181404D01*
G01X2345346Y9179890D01*
G01X2575346Y9179890D01*
G01X2588462Y9181331D01*
G01X2600952Y9185585D01*
G01X2612221Y9192449D01*
G01X2621731Y9201595D01*
G01X2629028Y9212589D01*
G01X2633764Y9224904D01*
G01X2644686Y9232979D01*
G01X2656889Y9238946D01*
G01X2669969Y9242606D01*
G01X2683496Y9243840D01*
G01X2765950Y9243840D01*
G01X2780592Y9242417D01*
G01X2794685Y9238200D01*
G01X2807702Y9231349D01*
G01X2819157Y9222118D01*
G01X2815070Y9209852D01*
G01X2813686Y9196997D01*
G01X2813686Y8996997D01*
G01X2815300Y8983126D01*
G01X2820055Y8969997D01*
G01X2815300Y8956868D01*
G01X2813686Y8942997D01*
G01X2813686Y8742997D01*
G01X2815300Y8729126D01*
G01X2820055Y8715997D01*
G01X2815682Y8704397D01*
G01X2804760Y8696322D01*
G01X2792557Y8690355D01*
G01X2779477Y8686695D01*
G01X2765950Y8685461D01*
G01X2411060Y8685461D01*
G01X2166564Y8929957D01*
G01X2166564Y9129157D01*
G01X2168550Y9146275D01*
G01X2174402Y9162484D01*
G01X2183809Y9176923D01*
G01X2199068Y9179383D01*
G01X2213203Y9185634D01*
G01X2225289Y9195268D01*
G01X2234535Y9207652D01*
G01X2240337Y9221978D01*
G01X2242314Y9237306D01*
G01X2242314Y9437307D01*
G01X2240799Y9450750D01*
G01X2236331Y9463519D01*
G01X2229134Y9474974D01*
G01X2219568Y9484540D01*
G01X2208113Y9491738D01*
G01X2195343Y9496206D01*
G01X2181900Y9497720D01*
G01X1951900Y9497720D01*
G01X1938457Y9496206D01*
G01X1925687Y9491738D01*
G01X1914233Y9484540D01*
G01X1904667Y9474974D01*
G01X1897469Y9463519D01*
G01X1893001Y9450750D01*
G01X1891486Y9437307D01*
G01X1891486Y9237306D01*
G01X1893001Y9223863D01*
G01X1897469Y9211094D01*
G01X1904667Y9199639D01*
G01X1914233Y9190073D01*
G01X1925687Y9182875D01*
G01X1938457Y9178407D01*
G01X1951900Y9176892D01*
G01X1956416Y9176892D01*
G01X1965810Y9162460D01*
G01X1971653Y9146262D01*
G01X1973636Y9129156D01*
G01X1973636Y8890000D01*
G01X1975490Y8871181D01*
G01X1980979Y8853085D01*
G01X1989893Y8836408D01*
G01X2001890Y8821790D01*
G01X2302893Y8520787D01*
G01X2317511Y8508790D01*
G01X2334188Y8499876D01*
G01X2352284Y8494387D01*
G01X2371103Y8492533D01*
G01X2765950Y8492533D01*
G01X2779477Y8491299D01*
G01X2792557Y8487639D01*
G01X2804760Y8481673D01*
G01X2815682Y8473597D01*
G01X2820055Y8461997D01*
G01X2815300Y8448868D01*
G01X2813686Y8434997D01*
G01X2813686Y8234997D01*
G01X2815300Y8221126D01*
G01X2820055Y8207997D01*
G01X2815300Y8194868D01*
G01X2813686Y8180997D01*
G01X2813686Y7980997D01*
G01X2815300Y7967126D01*
G01X2820055Y7953997D01*
G01X2815300Y7940868D01*
G01X2813686Y7926997D01*
G01X2813686Y7726997D01*
G01X2815300Y7713126D01*
G01X2820055Y7699997D01*
G01X2815300Y7686868D01*
G01X2813686Y7672997D01*
G01X2813686Y7472997D01*
G01X2815300Y7459126D01*
G01X2820055Y7445997D01*
G01X2815300Y7432868D01*
G01X2813686Y7418997D01*
G01X2813686Y7218997D01*
G01X2815300Y7205126D01*
G01X2820055Y7191997D01*
G01X2815300Y7178868D01*
G01X2813686Y7164997D01*
G01X2813686Y6964997D01*
G01X2815300Y6951126D01*
G01X2820055Y6937997D01*
G01X2815300Y6924868D01*
G01X2813686Y6910997D01*
G01X2813686Y6710997D01*
G01X2815300Y6697126D01*
G01X2820055Y6683997D01*
G01X2815300Y6670868D01*
G01X2813686Y6656997D01*
G01X2813686Y6456997D01*
G01X2815201Y6443554D01*
G01X2819669Y6430784D01*
G01X2826866Y6419330D01*
G01X2836432Y6409764D01*
G01X2847887Y6402566D01*
G01X2860657Y6398098D01*
G01X2874100Y6396583D01*
G01X3104100Y6396583D01*
G01X3117543Y6398098D01*
G01X3130313Y6402566D01*
G01X3141767Y6409764D01*
G01X3151333Y6419330D01*
G01X3158531Y6430784D01*
G01X3162999Y6443554D01*
G01X3164514Y6456997D01*
G01X3164514Y6656997D01*
G01X3162900Y6670868D01*
G01X3158145Y6683997D01*
G01X3162900Y6697126D01*
G01X3164514Y6710997D01*
G01X3164514Y6827070D01*
G01X3469047Y6522537D01*
G01X3483664Y6510541D01*
G01X3500342Y6501626D01*
G01X3518438Y6496137D01*
G01X3537257Y6494283D01*
G01X3544644Y6492560D01*
G01X3550507Y6487746D01*
G01X3553188Y6472708D01*
G01X3559556Y6458824D01*
G01X3569202Y6446980D01*
G01X3581510Y6437934D01*
G01X3595694Y6432264D01*
G01X3610846Y6430333D01*
G01X3840846Y6430333D01*
G01X3854290Y6431848D01*
G01X3867059Y6436316D01*
G01X3878514Y6443514D01*
G01X3888080Y6453080D01*
G01X3895277Y6464535D01*
G01X3899745Y6477304D01*
G01X3901260Y6490747D01*
G01X3901260Y6690747D01*
G01X3899646Y6704618D01*
G01X3894891Y6717747D01*
G01X3899646Y6730877D01*
G01X3901260Y6744747D01*
G01X3901260Y6944747D01*
G01X3899646Y6958618D01*
G01X3894891Y6971747D01*
G01X3899646Y6984877D01*
G01X3901260Y6998747D01*
G01X3901260Y7198747D01*
G01X3899646Y7212618D01*
G01X3894891Y7225747D01*
G01X3899646Y7238877D01*
G01X3901260Y7252747D01*
G01X3901260Y7452747D01*
G01X3899745Y7466191D01*
G01X3895277Y7478960D01*
G01X3888080Y7490415D01*
G01X3878514Y7499981D01*
G01X3867059Y7507178D01*
G01X3854290Y7511647D01*
G01X3840846Y7513161D01*
G01X3610846Y7513161D01*
G01X3599328Y7512053D01*
G01X3588232Y7508769D01*
G01X3577965Y7503430D01*
G01X3577965Y8102403D01*
G01X3576112Y8121223D01*
G01X3570623Y8139319D01*
G01X3561708Y8155996D01*
G01X3549712Y8170614D01*
G01X3317118Y8403207D01*
G01X3302500Y8415204D01*
G01X3285823Y8424118D01*
G01X3267727Y8429607D01*
G01X3248908Y8431461D01*
G01X3212250Y8431461D01*
G01X3198723Y8432695D01*
G01X3185642Y8436355D01*
G01X3173440Y8442322D01*
G01X3162518Y8450397D01*
G01X3159624Y8458808D01*
G01X3171397Y8466759D01*
G01X3184345Y8472607D01*
G01X3198094Y8476185D01*
G01X3212250Y8477389D01*
G01X3317927Y8477389D01*
G01X3336746Y8479242D01*
G01X3354842Y8484732D01*
G01X3371519Y8493646D01*
G01X3386137Y8505643D01*
G01X3553546Y8673051D01*
G01X3560053Y8659487D01*
G01X3569710Y8647952D01*
G01X3581918Y8639159D01*
G01X3595919Y8633656D01*
G01X3610846Y8631783D01*
G01X3840846Y8631783D01*
G01X3854290Y8633298D01*
G01X3867059Y8637766D01*
G01X3878514Y8644964D01*
G01X3888080Y8654530D01*
G01X3895277Y8665984D01*
G01X3899745Y8678754D01*
G01X3901260Y8692197D01*
G01X3901260Y8892197D01*
G01X3899646Y8906068D01*
G01X3894891Y8919197D01*
G01X3899646Y8932326D01*
G01X3901260Y8946197D01*
G01X3901260Y9146197D01*
G01X3899745Y9159640D01*
G01X3895277Y9172410D01*
G01X3888080Y9183865D01*
G01X3878514Y9193431D01*
G01X3867059Y9200628D01*
G01X3854290Y9205096D01*
G01X3840846Y9206611D01*
G01X3610846Y9206611D01*
G01X3597730Y9205170D01*
G01X3585240Y9200916D01*
G01X3573972Y9194052D01*
G01X3564462Y9184905D01*
G01X3557165Y9173912D01*
G01X3552428Y9161597D01*
G01X3541506Y9153522D01*
G01X3529304Y9147555D01*
G01X3516223Y9143895D01*
G01X3502696Y9142661D01*
G01X3442765Y9142661D01*
G01X3195738Y9389688D01*
G01X3183610Y9404118D01*
G01X3174145Y9420419D01*
G01X3167627Y9438106D01*
G01X3164249Y9456651D01*
G01X3162186Y9467607D01*
G01X3158145Y9477997D01*
G01X3162900Y9491126D01*
G01X3164514Y9504997D01*
G01X3164514Y9704997D01*
G01X3163849Y9713936D01*
G01X3161869Y9722678D01*
G01X3253761Y9722678D01*
G01X3481021Y9495417D01*
G01X3495639Y9483421D01*
G01X3512316Y9474507D01*
G01X3530412Y9469017D01*
G01X3549231Y9467164D01*
G01X3550432Y9466678D01*
G01X3550432Y9454197D01*
G01X3551947Y9440754D01*
G01X3556415Y9427984D01*
G01X3563613Y9416530D01*
G01X3573179Y9406964D01*
G01X3584634Y9399766D01*
G01X3597403Y9395298D01*
G01X3610846Y9393783D01*
G01X3840846Y9393783D01*
G01X3854290Y9395298D01*
G01X3867059Y9399766D01*
G01X3878514Y9406964D01*
G01X3888080Y9416530D01*
G01X3895277Y9427984D01*
G01X3899745Y9440754D01*
G01X3901260Y9454197D01*
G01X3901260Y9654197D01*
G01X3899745Y9667640D01*
G01X3895277Y9680410D01*
G01X3888080Y9691865D01*
G01X3878514Y9701431D01*
G01X3867059Y9708628D01*
G01X3854290Y9713096D01*
G01X3840846Y9714611D01*
G01X3610846Y9714611D01*
G01X3596325Y9712840D01*
G01X3582655Y9707630D01*
G01X3570638Y9699287D01*
G01X3560979Y9688301D01*
G01X3361928Y9887352D01*
G01X3357060Y9891895D01*
G01X3504695Y9891895D01*
G01X3521931Y9889881D01*
G01X3538238Y9883949D01*
G01X3552738Y9874418D01*
G01X3556008Y9860021D01*
G01X3562673Y9846847D01*
G01X3572333Y9835683D01*
G01X3584414Y9827195D01*
G01X3598192Y9821891D01*
G01X3612845Y9820087D01*
G01X3842845Y9820087D01*
G01X3856289Y9821601D01*
G01X3869058Y9826069D01*
G01X3880513Y9833267D01*
G01X3890079Y9842833D01*
G01X3897276Y9854288D01*
G01X3901744Y9867057D01*
G01X3903259Y9880500D01*
G01X3903259Y10080501D01*
G01X3901645Y10094371D01*
G01X3896890Y10107500D01*
G01X3901645Y10120630D01*
G01X3903259Y10134500D01*
G01X3903259Y10334501D01*
G01X3901744Y10347944D01*
G01X3897276Y10360713D01*
G01X3890079Y10372168D01*
G01X3880513Y10381734D01*
G01X3869058Y10388932D01*
G01X3856289Y10393400D01*
G01X3842845Y10394914D01*
G01X3612845Y10394914D01*
G01X3599403Y10393400D01*
G01X3586634Y10388932D01*
G01X3575180Y10381736D01*
G01X3565614Y10372171D01*
G01X3558416Y10360717D01*
G01X3546988Y10351065D01*
G01X3533867Y10343880D01*
G01X3519579Y10339451D01*
G01X3504695Y10337955D01*
G01X2463745Y10337955D01*
G01X2446627Y10339941D01*
G01X2430418Y10345792D01*
G01X2415979Y10355200D01*
G01X2413524Y10370463D01*
G01X2407275Y10384603D01*
G01X2397642Y10396695D01*
G01X2385256Y10405945D01*
G01X2370927Y10411750D01*
G01X2355595Y10413728D01*
G01X2155595Y10413728D01*
G01X2142152Y10412213D01*
G01X2129382Y10407745D01*
G01X2117927Y10400547D01*
G01X2108361Y10390981D01*
G01X2101164Y10379526D01*
G01X2096696Y10366757D01*
G01X2095181Y10353314D01*
G01X2095181Y10123314D01*
G01X2096775Y10109526D01*
G01X2101474Y10096466D01*
G01X2109030Y10084823D01*
G01X1682309Y10084823D01*
G01X1663490Y10082969D01*
G01X1645394Y10077480D01*
G01X1628716Y10068566D01*
G01X1614099Y10056569D01*
G01X1437759Y9880230D01*
G01X1425763Y9865612D01*
G01X1416849Y9848935D01*
G01X1411359Y9830839D01*
G01X1409506Y9812019D01*
G01X1409506Y8461172D01*
G01X1141776Y8193442D01*
G01X702296Y8193442D01*
G01X688226Y8194608D01*
G01X674539Y8198074D01*
G01X661609Y8203745D01*
G01X649790Y8211467D01*
G01X653355Y8222993D01*
G01X654560Y8234997D01*
G01X654560Y8268316D01*
G01X668992Y8277710D01*
G01X685190Y8283553D01*
G01X702296Y8285536D01*
G01X1079500Y8285536D01*
G01X1098319Y8287390D01*
G01X1116415Y8292879D01*
G01X1133092Y8301793D01*
G01X1147710Y8313790D01*
G01X1292428Y8458507D01*
G01X1304424Y8473125D01*
G01X1313339Y8489802D01*
G01X1318828Y8507898D01*
G01X1320681Y8526718D01*
G01X1320681Y10015164D01*
G01X1322669Y10032289D01*
G01X1328526Y10048504D01*
G01X1337940Y10062946D01*
G01X1353108Y10065498D01*
G01X1367140Y10071798D01*
G01X1379127Y10081437D01*
G01X1388290Y10093790D01*
G01X1394038Y10108058D01*
G01X1395996Y10123314D01*
G01X1395996Y10353314D01*
G01X1394481Y10366757D01*
G01X1390013Y10379526D01*
G01X1382815Y10390981D01*
G01X1373249Y10400547D01*
G01X1361794Y10407745D01*
G01X1349025Y10412213D01*
G01X1335582Y10413728D01*
G01X1135582Y10413728D01*
G01X1122138Y10412213D01*
G01X1109369Y10407745D01*
G01X1097914Y10400547D01*
G01X1088348Y10390981D01*
G01X1081151Y10379526D01*
G01X1076682Y10366757D01*
G01X1075168Y10353314D01*
G01X1075168Y10123314D01*
G01X1076708Y10109759D01*
G01X1081250Y10096896D01*
G01X1088562Y10085380D01*
G01X1098272Y10075797D01*
G01X1110662Y10063570D01*
G01X1119992Y10048874D01*
G01X1125788Y10032460D01*
G01X1127754Y10015164D01*
G01X1127754Y8970764D01*
G01X1118096Y8982276D01*
G01X1105897Y8991048D01*
G01X1091910Y8996539D01*
G01X1077000Y8998407D01*
G01X847000Y8998407D01*
G01X834705Y8997143D01*
G01X822925Y8993403D01*
G01X812152Y8987344D01*
G01X802838Y8979219D01*
G01X789343Y8967447D01*
G01X773734Y8958667D01*
G01X756665Y8953248D01*
G01X738850Y8951416D01*
G01X702296Y8951416D01*
G01X687798Y8952775D01*
G01X673804Y8956802D01*
G01X660802Y8963358D01*
G01X649243Y8972216D01*
G01X653216Y8984324D01*
G01X654560Y8996997D01*
G01X654560Y9196997D01*
G01X652946Y9210868D01*
G01X648191Y9223997D01*
G01X652946Y9237126D01*
G01X654560Y9250997D01*
G01X654560Y9450997D01*
G01X652946Y9464868D01*
G01X648191Y9477997D01*
G01X652946Y9491126D01*
G01X654560Y9504997D01*
G01X654560Y9704997D01*
G01X653045Y9718440D01*
G01X648577Y9731210D01*
G01X641380Y9742665D01*
G01X631814Y9752231D01*
G01X620359Y9759428D01*
G01X607589Y9763896D01*
G01X594146Y9765411D01*
G01X364146Y9765411D01*
G01X350703Y9763896D01*
G01X337933Y9759428D01*
G01X326479Y9752231D01*
G01X316913Y9742665D01*
G01X309715Y9731210D01*
G01X305247Y9718440D01*
G01X303732Y9704997D01*
G01X303732Y9504997D01*
G01X305346Y9491126D01*
G01X310101Y9477997D01*
G01X305346Y9464868D01*
G01X303732Y9450997D01*
G01X303732Y9250997D01*
G01X305346Y9237126D01*
G01X310101Y9223997D01*
G01X305346Y9210868D01*
G01X303732Y9196997D01*
G01X303732Y8996997D01*
G01X305346Y8983126D01*
G01X310101Y8969997D01*
G01X305346Y8956868D01*
G01X303732Y8942997D01*
G01X303732Y8917209D01*
G01X302196Y8897222D01*
G01X297623Y8877706D01*
G01X290121Y8859117D01*
G01X279866Y8841893D01*
G01X66763Y8628790D01*
G01X54766Y8614172D01*
G01X45852Y8597495D01*
G01X40362Y8579399D01*
G01X38509Y8560580D01*
G01X38509Y5817367D01*
G01X1270Y5817367D01*
G01X1270Y10800000D01*
G01X839586Y10800000D01*
G01X841561Y10774906D01*
G01X847437Y10750429D01*
G01X857070Y10727174D01*
G01X870222Y10705711D01*
G01X886570Y10686570D01*
G01X905711Y10670222D01*
G01X927174Y10657070D01*
G01X950429Y10647437D01*
G01X974906Y10641561D01*
G01X1000000Y10639586D01*
G01X1025094Y10641561D01*
G01X1049571Y10647437D01*
G01X1072826Y10657070D01*
G01X1094289Y10670222D01*
G01X1113430Y10686570D01*
G01X1129778Y10705711D01*
G01X1142930Y10727174D01*
G01X1152563Y10750429D01*
G01X1158439Y10774906D01*
G01X1160414Y10800000D01*
G01X1158439Y10825094D01*
G01X1152563Y10849571D01*
G01X1142930Y10872826D01*
G01X1129778Y10894289D01*
G01X1113430Y10913430D01*
G01X1094289Y10929778D01*
G01X1072826Y10942930D01*
G01X1049571Y10952563D01*
G01X1025094Y10958439D01*
G01X1000000Y10960414D01*
G01X974906Y10958439D01*
G01X950429Y10952563D01*
G01X927174Y10942930D01*
G01X905711Y10929778D01*
G01X886570Y10913430D01*
G01X870222Y10894289D01*
G01X857070Y10872826D01*
G01X847437Y10849571D01*
G01X841561Y10825094D01*
G01X839586Y10800000D01*
G01X839586Y10800000D01*
G01X1270Y10800000D01*
G01X1270Y10998730D01*
G01X3998730Y10998730D01*
G01X3998730Y1270D01*
G01X1270Y1270D01*
G37*
G54D10*
G01X1270Y1270D02*
G01X1270Y10998730D01*
G01X3998730Y10998730D01*
G01X3998730Y1270D01*
G01X1270Y1270D01*
G01X3098190Y4313290D02*
G03X3166400Y4285036I68210J68210D01*
G01X3502696Y4285036D01*
G02X3554102Y4264563I0J-74774D01*
G03X3610846Y4224883I56745J20734D01*
G01X3840846Y4224883D01*
G03X3901260Y4285297I0J60414D01*
G01X3901260Y4485297D01*
G03X3894891Y4512297I-60414J0D01*
G03X3901260Y4539297I-54045J27000D01*
G01X3901260Y4739297D01*
G03X3894891Y4766297I-60414J0D01*
G03X3901260Y4793297I-54045J27000D01*
G01X3901260Y4993297D01*
G03X3894891Y5020297I-60414J0D01*
G03X3901260Y5047297I-54045J27000D01*
G01X3901260Y5247297D01*
G03X3840846Y5307711I-60414J0D01*
G01X3610846Y5307711D01*
G03X3550432Y5247297I0J-60414D01*
G01X3550432Y5222406D01*
G01X3170826Y5222406D01*
G01X2604458Y5788774D01*
G01X2604458Y6013401D01*
G01X2637072Y5980787D01*
G03X2705282Y5952533I68210J68210D01*
G01X2765950Y5952533D01*
G02X2815682Y5933597I0J-74773D01*
G03X2874100Y5888583I58418J15400D01*
G01X3104100Y5888583D01*
G03X3164514Y5948997I0J60414D01*
G01X3164514Y6148997D01*
G03X3104100Y6209411I-60414J0D01*
G01X2874100Y6209411D01*
G03X2815682Y6164397I0J-60414D01*
G02X2765950Y6145461I-49732J55837D01*
G01X2750764Y6145461D01*
G01X2750764Y7620000D01*
G03X2722510Y7688210I-96464J0D01*
G01X2556810Y7853911D01*
G01X2556810Y8112140D01*
G02X2574031Y8159876I74774J0D01*
G01X2575346Y8159876D01*
G03X2635760Y8220290I0J60414D01*
G01X2635760Y8420291D01*
G03X2575346Y8480704I-60414J0D01*
G01X2345346Y8480704D01*
G03X2284932Y8420184I53J-60467D01*
G02X2263623Y8407789I-47736J57553D01*
G02X2242242Y8420244I26427J69948D01*
G03X2181900Y8477707I-60342J-2951D01*
G01X1960510Y8477707D01*
G02X1897729Y8515902I47305J148448D01*
G01X1862856Y8550775D01*
G01X1862856Y9648352D01*
G01X1937181Y9722678D01*
G01X2816331Y9722678D01*
G03X2813686Y9704997I57769J-17680D01*
G01X2813686Y9504997D01*
G03X2820055Y9477997I60414J0D01*
G03X2813763Y9454052I54045J-27000D01*
G02X2765950Y9436768I-47813J57489D01*
G01X2683496Y9436768D01*
G02X2633764Y9455704I0J74774D01*
G03X2575346Y9500718I-58418J-15400D01*
G01X2345346Y9500718D01*
G03X2284932Y9440304I0J-60414D01*
G01X2284932Y9240304D01*
G03X2345346Y9179890I60414J0D01*
G01X2575346Y9179890D01*
G03X2633764Y9224904I0J60414D01*
G02X2683496Y9243840I49732J-55838D01*
G01X2765950Y9243840D01*
G02X2819157Y9222118I0J-76026D01*
G03X2813686Y9196997I54943J-25121D01*
G01X2813686Y8996997D01*
G03X2820055Y8969997I60414J0D01*
G03X2813686Y8942997I54045J-27000D01*
G01X2813686Y8742997D01*
G03X2820055Y8715997I60414J0D01*
G03X2815682Y8704397I54045J-27000D01*
G02X2765950Y8685461I-49732J55837D01*
G01X2411060Y8685461D01*
G01X2166564Y8929957D01*
G01X2166564Y9129157D01*
G02X2183809Y9176923I74773J0D01*
G03X2242314Y9237306I-1909J60384D01*
G01X2242314Y9437307D01*
G03X2181900Y9497720I-60414J0D01*
G01X1951900Y9497720D01*
G03X1891486Y9437307I0J-60414D01*
G01X1891486Y9237306D01*
G03X1951900Y9176892I60414J0D01*
G01X1956416Y9176892D01*
G02X1973636Y9129156I-57553J-47736D01*
G01X1973636Y8890000D01*
G03X2001890Y8821790I96464J0D01*
G01X2302893Y8520787D01*
G03X2371103Y8492533I68210J68210D01*
G01X2765950Y8492533D01*
G02X2815682Y8473597I0J-74773D01*
G03X2820055Y8461997I58418J15400D01*
G03X2813686Y8434997I54045J-27000D01*
G01X2813686Y8234997D01*
G03X2820055Y8207997I60414J0D01*
G03X2813686Y8180997I54045J-27000D01*
G01X2813686Y7980997D01*
G03X2820055Y7953997I60414J0D01*
G03X2813686Y7926997I54045J-27000D01*
G01X2813686Y7726997D01*
G03X2820055Y7699997I60414J0D01*
G03X2813686Y7672997I54045J-27000D01*
G01X2813686Y7472997D01*
G03X2820055Y7445997I60414J0D01*
G03X2813686Y7418997I54045J-27000D01*
G01X2813686Y7218997D01*
G03X2820055Y7191997I60414J0D01*
G03X2813686Y7164997I54045J-27000D01*
G01X2813686Y6964997D01*
G03X2820055Y6937997I60414J0D01*
G03X2813686Y6910997I54045J-27000D01*
G01X2813686Y6710997D01*
G03X2820055Y6683997I60414J0D01*
G03X2813686Y6656997I54045J-27000D01*
G01X2813686Y6456997D01*
G03X2874100Y6396583I60414J0D01*
G01X3104100Y6396583D01*
G03X3164514Y6456997I0J60414D01*
G01X3164514Y6656997D01*
G03X3158145Y6683997I-60414J0D01*
G03X3164514Y6710997I-54045J27000D01*
G01X3164514Y6827070D01*
G01X3469047Y6522537D01*
G03X3537257Y6494283I68210J68210D01*
G02X3550507Y6487746I0J-16697D01*
G03X3610846Y6430333I60339J3001D01*
G01X3840846Y6430333D01*
G03X3901260Y6490747I0J60414D01*
G01X3901260Y6690747D01*
G03X3894891Y6717747I-60414J0D01*
G03X3901260Y6744747I-54045J27000D01*
G01X3901260Y6944747D01*
G03X3894891Y6971747I-60414J0D01*
G03X3901260Y6998747I-54045J27000D01*
G01X3901260Y7198747D01*
G03X3894891Y7225747I-60414J0D01*
G03X3901260Y7252747I-54045J27000D01*
G01X3901260Y7452747D01*
G03X3840846Y7513161I-60414J0D01*
G01X3610846Y7513161D01*
G03X3577965Y7503430I0J-60414D01*
G01X3577965Y8102403D01*
G03X3549712Y8170614I-96464J0D01*
G01X3317118Y8403207D01*
G03X3248908Y8431461I-68210J-68210D01*
G01X3212250Y8431461D01*
G02X3162518Y8450397I0J74774D01*
G03X3159624Y8458808I-58418J-15400D01*
G02X3212250Y8477389I52626J-65234D01*
G01X3317927Y8477389D01*
G03X3386137Y8505643I0J96464D01*
G01X3553546Y8673051D01*
G03X3610846Y8631783I57300J19146D01*
G01X3840846Y8631783D01*
G03X3901260Y8692197I0J60414D01*
G01X3901260Y8892197D01*
G03X3894891Y8919197I-60414J0D01*
G03X3901260Y8946197I-54045J27000D01*
G01X3901260Y9146197D01*
G03X3840846Y9206611I-60414J0D01*
G01X3610846Y9206611D01*
G03X3552428Y9161597I0J-60414D01*
G02X3502696Y9142661I-49732J55837D01*
G01X3442765Y9142661D01*
G01X3195738Y9389688D01*
G02X3164249Y9456651I77177J77177D01*
G03X3158145Y9477997I-60149J-5654D01*
G03X3164514Y9504997I-54045J27000D01*
G01X3164514Y9704997D01*
G03X3161869Y9722678I-60414J0D01*
G01X3253761Y9722678D01*
G01X3481021Y9495417D01*
G03X3549231Y9467164I68210J68210D01*
G01X3550432Y9466678D01*
G01X3550432Y9454197D01*
G03X3610846Y9393783I60414J0D01*
G01X3840846Y9393783D01*
G03X3901260Y9454197I0J60414D01*
G01X3901260Y9654197D01*
G03X3840846Y9714611I-60414J0D01*
G01X3610846Y9714611D01*
G03X3560979Y9688301I0J-60414D01*
G01X3361928Y9887352D01*
G03X3357060Y9891895I-68210J-68210D01*
G01X3504695Y9891895D01*
G02X3552738Y9874418I0J-74774D01*
G03X3612845Y9820087I60107J6082D01*
G01X3842845Y9820087D01*
G03X3903259Y9880500I0J60414D01*
G01X3903259Y10080501D01*
G03X3896890Y10107500I-60414J0D01*
G03X3903259Y10134500I-54045J27000D01*
G01X3903259Y10334501D01*
G03X3842845Y10394914I-60414J0D01*
G01X3612845Y10394914D01*
G03X3558416Y10360717I0J-60414D01*
G02X3504695Y10337955I-53721J52011D01*
G01X2463745Y10337955D01*
G02X2415979Y10355200I0J74774D01*
G03X2355595Y10413728I-60384J-1886D01*
G01X2155595Y10413728D01*
G03X2095181Y10353314I0J-60414D01*
G01X2095181Y10123314D01*
G03X2109030Y10084823I60414J0D01*
G01X1682309Y10084823D01*
G03X1614099Y10056569I0J-96464D01*
G01X1437759Y9880230D01*
G03X1409506Y9812019I68210J-68210D01*
G01X1409506Y8461172D01*
G01X1141776Y8193442D01*
G01X702296Y8193442D01*
G02X649790Y8211467I0J85487D01*
G03X654560Y8234997I-55643J23530D01*
G01X654560Y8268316D01*
G02X702296Y8285536I47736J-57553D01*
G01X1079500Y8285536D01*
G03X1147710Y8313790I0J96464D01*
G01X1292428Y8458507D01*
G03X1320681Y8526718I-68210J68210D01*
G01X1320681Y10015164D01*
G02X1337940Y10062946I74774J0D01*
G03X1395996Y10123314I-2358J60368D01*
G01X1395996Y10353314D01*
G03X1335582Y10413728I-60414J0D01*
G01X1135582Y10413728D01*
G03X1075168Y10353314I0J-60414D01*
G01X1075168Y10123314D01*
G03X1098272Y10075797I60414J0D01*
G02X1127754Y10015164I-47610J-60634D01*
G01X1127754Y8970764D01*
G03X1077000Y8998407I-50754J-32771D01*
G01X847000Y8998407D01*
G03X802838Y8979219I0J-60414D01*
G02X738850Y8951416I-63988J59733D01*
G01X702296Y8951416D01*
G02X649243Y8972216I0J78061D01*
G03X654560Y8996997I-55097J24781D01*
G01X654560Y9196997D01*
G03X648191Y9223997I-60414J0D01*
G03X654560Y9250997I-54045J27000D01*
G01X654560Y9450997D01*
G03X648191Y9477997I-60414J0D01*
G03X654560Y9504997I-54045J27000D01*
G01X654560Y9704997D01*
G03X594146Y9765411I-60414J0D01*
G01X364146Y9765411D01*
G03X303732Y9704997I0J-60414D01*
G01X303732Y9504997D01*
G03X310101Y9477997I60414J0D01*
G03X303732Y9450997I54045J-27000D01*
G01X303732Y9250997D01*
G03X310101Y9223997I60414J0D01*
G03X303732Y9196997I54045J-27000D01*
G01X303732Y8996997D01*
G03X310101Y8969997I60414J0D01*
G03X303732Y8942997I54045J-27000D01*
G01X303732Y8917209D01*
G02X279866Y8841893I-130770J-0D01*
G01X66763Y8628790D01*
G03X38509Y8560580I68210J-68210D01*
G01X38509Y5817367D01*
G03X66763Y5749157I96464J0D01*
G01X159419Y5656501D01*
G02X183286Y5581184I-106903J-75316D01*
G01X183286Y5558409D01*
G03X243700Y5497995I60414J0D01*
G01X473700Y5497995D01*
G03X534114Y5558409I0J60414D01*
G01X534114Y5758409D01*
G03X473700Y5818823I-60414J0D01*
G01X321387Y5818823D01*
G02X246071Y5842690I0J130771D01*
G01X231437Y5857324D01*
G01X231437Y8520623D01*
G01X303732Y8592919D01*
G01X303732Y8488997D01*
G03X310101Y8461997I60414J0D01*
G03X303732Y8434997I54045J-27000D01*
G01X303732Y8234997D01*
G03X310101Y8207997I60414J0D01*
G03X303732Y8180997I54045J-27000D01*
G01X303732Y7980997D01*
G03X310101Y7953997I60414J0D01*
G03X303732Y7926997I54045J-27000D01*
G01X303732Y7726997D01*
G03X310101Y7699997I60414J0D01*
G03X303732Y7672997I54045J-27000D01*
G01X303732Y7472997D01*
G03X310101Y7445997I60414J0D01*
G03X303732Y7418997I54045J-27000D01*
G01X303732Y7218997D01*
G03X310101Y7191997I60414J0D01*
G03X303732Y7164997I54045J-27000D01*
G01X303732Y6964997D01*
G03X310101Y6937997I60414J0D01*
G03X303732Y6910997I54045J-27000D01*
G01X303732Y6710997D01*
G03X310101Y6683997I60414J0D01*
G03X303732Y6656997I54045J-27000D01*
G01X303732Y6456997D01*
G03X364146Y6396583I60414J0D01*
G01X594146Y6396583D01*
G03X654560Y6456997I0J60414D01*
G01X654560Y6656997D01*
G03X648191Y6683997I-60414J0D01*
G03X654560Y6710997I-54045J27000D01*
G01X654560Y6910997D01*
G03X648191Y6937997I-60414J0D01*
G03X652564Y6949597I-54045J27000D01*
G02X702296Y6968533I49732J-55838D01*
G01X1674846Y6968533D01*
G01X1914236Y6729143D01*
G01X1914236Y6709461D01*
G03X1884100Y6717514I-30136J-52361D01*
G01X1584100Y6717514D01*
G03X1523686Y6657100I0J-60414D01*
G01X1523686Y6484556D01*
G02X1499820Y6409240I-130770J-0D01*
G01X1236040Y6145461D01*
G01X702296Y6145461D01*
G02X652564Y6164397I0J74774D01*
G03X594146Y6209411I-58418J-15400D01*
G01X364146Y6209411D01*
G03X303732Y6148997I0J-60414D01*
G01X303732Y5948997D01*
G03X364146Y5888583I60414J0D01*
G01X594146Y5888583D01*
G03X652564Y5933597I0J60414D01*
G02X702296Y5952533I49732J-55838D01*
G01X1275997Y5952533D01*
G03X1344207Y5980787I0J96464D01*
G01X1636240Y6272820D01*
G02X1711556Y6296686I75315J-106904D01*
G01X1884100Y6296686D01*
G03X1914236Y6304739I0J60414D01*
G01X1914236Y5537200D01*
G03X1942490Y5468990I96464J0D01*
G01X3098190Y4313290D01*
G01X264236Y789330D02*
G03X292487Y721126I96454J0D01*
G01X434127Y579486D01*
G02X463348Y539852I-116431J-116431D01*
G03X461783Y526187I58848J-13665D01*
G01X461783Y176187D01*
G03X522196Y115773I60414J0D01*
G01X872197Y115773D01*
G03X932610Y176187I0J60414D01*
G01X932610Y509169D01*
G02X1024984Y624993I563140J-354375D01*
G01X1440638Y1040646D01*
G01X3135603Y1040646D01*
G01X3144847Y1040260D01*
G01X3153644Y1039215D01*
G01X3163200Y1037417D01*
G01X3173363Y1034859D01*
G01X3183983Y1031564D01*
G01X3194919Y1027569D01*
G01X3206038Y1022927D01*
G01X3217213Y1017700D01*
G01X3228324Y1011956D01*
G01X3239258Y1005768D01*
G01X3249903Y999216D01*
G01X3260151Y992385D01*
G01X3269893Y985365D01*
G01X3279024Y978254D01*
G01X3287433Y971161D01*
G01X3295565Y963701D01*
G03X3735485Y1141216I179735J188443D01*
G03X3312000Y1354995I-260184J10928D01*
G01X3292249Y1339815D01*
G01X3282576Y1332963D01*
G01X3272284Y1326088D01*
G01X3261744Y1319478D01*
G01X3251021Y1313199D01*
G01X3240179Y1307316D01*
G01X3229290Y1301890D01*
G01X3218423Y1296979D01*
G01X3207654Y1292635D01*
G01X3197061Y1288905D01*
G01X3186722Y1285828D01*
G01X3176719Y1283430D01*
G01X3167130Y1281727D01*
G01X3158024Y1280719D01*
G01X3148234Y1280344D01*
G01X1390995Y1280344D01*
G03X1306249Y1245241I0J-119849D01*
G01X723635Y662628D01*
G02X668238Y618655I-219648J219832D01*
G02X660634Y625793I108826J123568D01*
G01X457144Y829282D01*
G01X457144Y4430275D01*
G02X461783Y4456195I74736J0D01*
G01X461783Y4123787D01*
G03X522196Y4063373I60414J0D01*
G01X662264Y4063373D01*
G02X811657Y4014814I-254J-254867D01*
G01X1229365Y3597105D01*
G03X1314122Y3561998I84757J84757D01*
G01X2634219Y3561998D01*
G01X2634219Y3080317D01*
G03X2669322Y2995571I119849J0D01*
G01X3137694Y2527200D01*
G01X3144999Y2519399D01*
G01X3151187Y2511884D01*
G01X3156998Y2503889D01*
G01X3162466Y2495395D01*
G01X3167615Y2486394D01*
G01X3172464Y2476887D01*
G01X3177029Y2466886D01*
G01X3181325Y2456411D01*
G01X3185369Y2445488D01*
G01X3189075Y2434465D01*
G01X3196227Y2410245D01*
G01X3202637Y2385226D01*
G01X3208719Y2359226D01*
G03X3673627Y2264775I253851J58094D01*
G03X3438094Y2676582I-211057J152546D01*
G01X3428831Y2676024D01*
G01X3419512Y2676103D01*
G01X3409076Y2676812D01*
G01X3397796Y2678175D01*
G01X3385913Y2680189D01*
G01X3373651Y2682831D01*
G01X3361219Y2686067D01*
G01X3348815Y2689852D01*
G01X3336634Y2694130D01*
G01X3324869Y2698839D01*
G01X3313712Y2703900D01*
G01X3303358Y2709218D01*
G01X3294005Y2714674D01*
G01X3285854Y2720115D01*
G01X3279098Y2725337D01*
G01X3272772Y2731106D01*
G01X2873917Y3129960D01*
G01X2873917Y3562013D01*
G01X3129553Y3562013D01*
G01X3139084Y3561632D01*
G01X3148038Y3560606D01*
G01X3157604Y3558857D01*
G01X3167674Y3556384D01*
G01X3178137Y3553202D01*
G01X3188887Y3549346D01*
G01X3199815Y3544859D01*
G01X3210823Y3539795D01*
G01X3221814Y3534215D01*
G01X3232697Y3528182D01*
G01X3243383Y3521767D01*
G01X3253789Y3515042D01*
G01X3263829Y3508084D01*
G01X3273421Y3500973D01*
G01X3282482Y3493795D01*
G01X3291352Y3486283D01*
G03X3722983Y3683314I171218J196214D01*
G03X3290125Y3877633I-260413J-817D01*
G01X3281361Y3870126D01*
G01X3272391Y3862955D01*
G01X3262864Y3855841D01*
G01X3252865Y3848872D01*
G01X3242483Y3842131D01*
G01X3231802Y3835695D01*
G01X3220912Y3829639D01*
G01X3209904Y3824034D01*
G01X3198873Y3818946D01*
G01X3187918Y3814437D01*
G01X3177143Y3810561D01*
G01X3166657Y3807363D01*
G01X3156575Y3804877D01*
G01X3147012Y3803121D01*
G01X3138081Y3802092D01*
G01X3128592Y3801710D01*
G01X2755963Y3801710D01*
G01X2754068Y3801725D01*
G01X1363771Y3801725D01*
G01X981169Y4184327D01*
G02X932610Y4333720I206308J149647D01*
G01X932610Y4473787D01*
G03X872197Y4534201I-60414J0D01*
G01X548738Y4534201D01*
G02X581850Y4541932I33112J-67042D01*
G01X1389395Y4541932D01*
G03X1457606Y4570185I0J96464D01*
G01X1636240Y4748820D01*
G02X1711556Y4772686I75315J-106904D01*
G01X1884100Y4772686D01*
G03X1944514Y4833100I0J60414D01*
G01X1944514Y5133100D01*
G03X1884100Y5193514I-60414J0D01*
G01X1584100Y5193514D01*
G03X1523686Y5133100I0J-60414D01*
G01X1523686Y4960556D01*
G02X1499820Y4885240I-130770J-0D01*
G01X1349439Y4734859D01*
G01X581850Y4734859D01*
G02X532118Y4753796I0J74774D01*
G03X473700Y4798810I-58418J-15400D01*
G01X243700Y4798810D01*
G03X183286Y4738396I0J-60414D01*
G01X183286Y4538396D01*
G03X243700Y4477982I60414J0D01*
G01X247029Y4477982D01*
G02X264236Y4430275I-57529J-47706D01*
G01X264236Y789330D01*
G01X839586Y10800000D02*
G03X1160414Y10800000I160414J0D01*
G03X839586Y10800000I-160414J0D01*
G01X2719586Y200000D02*
G03X3040414Y200000I160414J0D01*
G03X2719586Y200000I-160414J0D01*
G04 Copper End*

G04 TearDrop Start*
G36*
G01X3537257Y6554697D02*
G01X3537257Y6626797D01*
G03X3610846Y6680872I0J77110D01*
G01X3610846Y6500623D01*
G03X3537257Y6554697I-73589J-23036D01*
G37*
G36*
G01X3502696Y6821453D02*
G01X3502696Y6893553D01*
G03X3610846Y6944747I0J139832D01*
G01X3610846Y6767378D01*
G03X3502696Y6821453I-108150J-81112D01*
G37*
G36*
G01X3502696Y7062697D02*
G01X3502696Y7134797D01*
G03X3610846Y7188872I-0J135187D01*
G01X3610846Y7008623D01*
G03X3502696Y7062697I-108150J-81112D01*
G37*
G36*
G01X3513757Y7316697D02*
G01X3513757Y7388797D01*
G03X3610846Y7442872I-0J114197D01*
G01X3610846Y7262623D01*
G03X3513757Y7316697I-97089J-60122D01*
G37*
G36*
G01X3502696Y4345450D02*
G01X3502696Y4417550D01*
G03X3610846Y4471625I-0J135187D01*
G01X3610846Y4291375D01*
G03X3502696Y4345450I-108150J-81112D01*
G37*
G36*
G01X3502696Y4627528D02*
G01X3502696Y4699628D01*
G03X3610846Y4739297I0J167259D01*
G01X3610846Y4573453D01*
G03X3502696Y4627528I-108150J-81112D01*
G37*
G36*
G01X3502696Y4843000D02*
G01X3502696Y4915100D01*
G03X3610846Y4969175I-0J135187D01*
G01X3610846Y4793297D01*
G03X3502696Y4843000I-108150J-92810D01*
G37*
G36*
G01X3549231Y9527578D02*
G01X3549231Y9599678D01*
G03X3610846Y9653753I0J62141D01*
G01X3610846Y9473503D01*
G03X3549231Y9527578I-61615J-8066D01*
G37*
G36*
G01X3502696Y9010147D02*
G01X3502696Y9082247D01*
G03X3610846Y9136322I-0J135187D01*
G01X3610846Y8956072D01*
G03X3502696Y9010147I-108150J-81112D01*
G37*
G36*
G01X3532189Y8752064D02*
G01X3532189Y8824164D01*
G03X3610846Y8878239I-0J84245D01*
G01X3610846Y8697989D01*
G03X3532189Y8752064I-78658J-30170D01*
G37*
G36*
G01X3136864Y1101060D02*
G01X3149391Y1219930D01*
G01X3162510Y1220433D01*
G01X3175745Y1221898D01*
G01X3189053Y1224261D01*
G01X3202393Y1227459D01*
G01X3215721Y1231427D01*
G01X3228995Y1236100D01*
G01X3242173Y1241415D01*
G01X3255211Y1247307D01*
G01X3268067Y1253713D01*
G01X3280699Y1260568D01*
G01X3293064Y1267808D01*
G01X3305119Y1275369D01*
G01X3316822Y1283186D01*
G01X3328130Y1291196D01*
G01X3349391Y1307537D01*
G01X3336865Y1007799D01*
G01X3327346Y1016531D01*
G01X3317074Y1025194D01*
G01X3306125Y1033721D01*
G01X3294576Y1042043D01*
G01X3282502Y1050092D01*
G01X3269979Y1057799D01*
G01X3257085Y1065097D01*
G01X3243894Y1071916D01*
G01X3230485Y1078189D01*
G01X3216931Y1083847D01*
G01X3203310Y1088822D01*
G01X3189698Y1093046D01*
G01X3176171Y1096450D01*
G01X3162806Y1098966D01*
G01X3149678Y1100525D01*
G01X3136864Y1101060D01*
G37*
G36*
G01X3130760Y3622427D02*
G01X3129807Y3741297D01*
G01X3142759Y3741818D01*
G01X3155935Y3743336D01*
G01X3169272Y3745784D01*
G01X3182712Y3749098D01*
G01X3196192Y3753209D01*
G01X3209652Y3758052D01*
G01X3223032Y3763559D01*
G01X3236271Y3769665D01*
G01X3249307Y3776303D01*
G01X3262081Y3783406D01*
G01X3274532Y3790908D01*
G01X3286598Y3798743D01*
G01X3298219Y3806844D01*
G01X3309335Y3815144D01*
G01X3319884Y3823577D01*
G01X3329807Y3832076D01*
G01X3330760Y3532078D01*
G01X3320771Y3540537D01*
G01X3310177Y3548930D01*
G01X3299033Y3557190D01*
G01X3287400Y3565252D01*
G01X3275336Y3573050D01*
G01X3262897Y3580517D01*
G01X3250143Y3587586D01*
G01X3237132Y3594192D01*
G01X3223922Y3600269D01*
G01X3210570Y3605751D01*
G01X3197136Y3610570D01*
G01X3183678Y3614662D01*
G01X3170252Y3617960D01*
G01X3156919Y3620397D01*
G01X3143735Y3621908D01*
G01X3130760Y3622427D01*
G37*
G36*
G01X3181111Y2569221D02*
G01X3231036Y2687404D01*
G01X3240206Y2679040D01*
G01X3250569Y2671031D01*
G01X3261985Y2663412D01*
G01X3274314Y2656219D01*
G01X3287417Y2649488D01*
G01X3301155Y2643257D01*
G01X3315389Y2637560D01*
G01X3329980Y2632435D01*
G01X3344787Y2627917D01*
G01X3359673Y2624043D01*
G01X3374496Y2620848D01*
G01X3389119Y2618370D01*
G01X3403402Y2616644D01*
G01X3417206Y2615707D01*
G01X3430391Y2615594D01*
G01X3442818Y2616343D01*
G01X3267578Y2372845D01*
G01X3261318Y2399606D01*
G01X3254478Y2426302D01*
G01X3246698Y2452651D01*
G01X3242343Y2465606D01*
G01X3237618Y2478368D01*
G01X3232478Y2490900D01*
G01X3226878Y2503167D01*
G01X3220774Y2515134D01*
G01X3214121Y2526766D01*
G01X3206872Y2538026D01*
G01X3198985Y2548878D01*
G01X3190412Y2559289D01*
G01X3181111Y2569221D01*
G37*
G36*
G01X581850Y4674446D02*
G01X581850Y4602346D01*
G03X473700Y4548271I-0J-135187D01*
G01X473700Y4728521D01*
G03X581850Y4674446I108150J81112D01*
G37*
G36*
G01X396730Y4430275D02*
G01X324650Y4430275D01*
G03X270590Y4538396I-135150J0D01*
G01X450790Y4538396D01*
G03X396730Y4430275I81090J-108120D01*
G37*
G36*
G01X205463Y5695895D02*
G01X206677Y5796646D01*
G03X321387Y5758409I114710J152948D01*
G01X243700Y5581184D01*
G03X205463Y5695895I-191184J0D01*
G37*
G36*
G01X1903944Y8322284D02*
G01X1854926Y8473267D01*
G03X1951900Y8417293I152888J152888D01*
G01X1951900Y8217293D01*
G03X1903944Y8322284I-164751J-11804D01*
G37*
G36*
G01X2290050Y8342550D02*
G01X2290050Y8270450D01*
G03X2181900Y8217293I0J-136597D01*
G01X2181900Y8396625D01*
G03X2290050Y8342550I108150J81112D01*
G37*
G36*
G01X2106150Y9129156D02*
G01X2034050Y9129156D01*
G03X1979975Y9237306I-135187J-0D01*
G01X2160225Y9237306D01*
G03X2106150Y9129156I81112J-108150D01*
G37*
G36*
G01X2496396Y8112140D02*
G01X2424296Y8112140D01*
G03X2370221Y8220290I-135187J0D01*
G01X2550471Y8220290D01*
G03X2496396Y8112140I81112J-108150D01*
G37*
G36*
G01X2237196Y8270450D02*
G01X2237196Y8342550D01*
G03X2345346Y8396625I-0J135187D01*
G01X2345346Y8220290D01*
G03X2237196Y8270450I-108150J-91513D01*
G37*
G36*
G01X2683496Y9376354D02*
G01X2683496Y9304254D01*
G03X2575346Y9250179I-0J-135187D01*
G01X2575346Y9430429D01*
G03X2683496Y9376354I108150J81112D01*
G37*
G36*
G01X702296Y6085047D02*
G01X702296Y6012947D01*
G03X594146Y5958872I-0J-135187D01*
G01X594146Y6139122D01*
G03X702296Y6085047I108150J81112D01*
G37*
G36*
G01X702296Y7101047D02*
G01X702296Y7028947D01*
G03X594146Y6974872I-0J-135187D01*
G01X594146Y7155122D01*
G03X702296Y7101047I108150J81112D01*
G37*
G36*
G01X702296Y7382586D02*
G01X702296Y7310486D01*
G03X594146Y7256411I0J-135187D01*
G01X594146Y7418997D01*
G03X702296Y7382586I108150J142410D01*
G37*
G36*
G01X702296Y7595188D02*
G01X702296Y7523088D01*
G03X594146Y7472997I0J-141797D01*
G01X594146Y7649263D01*
G03X702296Y7595188I108150J81112D01*
G37*
G36*
G01X702296Y7878184D02*
G01X702296Y7806084D01*
G03X594146Y7752010I-0J-135187D01*
G01X594146Y7926997D01*
G03X702296Y7878184I108150J95403D01*
G37*
G36*
G01X702296Y8133028D02*
G01X702296Y8060929D01*
G03X594146Y8006854I-0J-135187D01*
G01X594146Y8180997D01*
G03X702296Y8133028I108150J97933D01*
G37*
G36*
G01X702296Y8418050D02*
G01X702296Y8345950D01*
G03X594146Y8291875I0J-135187D01*
G01X594146Y8434997D01*
G03X702296Y8418050I108150J336611D01*
G37*
G36*
G01X330135Y8704760D02*
G01X325909Y8802499D01*
G03X364146Y8917209I-152947J114710D01*
G01X444846Y8742997D01*
G03X330135Y8704760I-0J-191184D01*
G37*
G36*
G01X702296Y8891003D02*
G01X702296Y8818903D01*
G03X594146Y8764828I0J-135187D01*
G01X594146Y8942997D01*
G03X702296Y8891003I108150J86480D01*
G37*
G36*
G01X2765950Y6012947D02*
G01X2765950Y6085047D01*
G03X2874100Y6139122I-0J135187D01*
G01X2874100Y5958872D01*
G03X2765950Y6012947I-108150J-81112D01*
G37*
G36*
G01X3161002Y7017984D02*
G01X3184536Y6892486D01*
G03X3104100Y6964997I-739937J-739936D01*
G01X3104100Y7114029D01*
G03X3161002Y7017984I216096J63149D01*
G37*
G36*
G01X3145268Y7561219D02*
G01X3194286Y7410236D01*
G03X3104100Y7472997I-220098J-220098D01*
G01X3104100Y7672997D01*
G03X3145268Y7561219I172332J0D01*
G37*
G36*
G01X3186101Y8096253D02*
G01X3186101Y8024153D01*
G03X3104100Y7980997I0J-99484D01*
G01X3104100Y8150328D01*
G03X3186101Y8096253I82001J35137D01*
G37*
G36*
G01X3212250Y8371047D02*
G01X3212250Y8298947D01*
G03X3104100Y8244872I-0J-135187D01*
G01X3104100Y8425122D01*
G03X3212250Y8371047I108150J81112D01*
G37*
G36*
G01X3212250Y8609903D02*
G01X3212250Y8537803D01*
G03X3104100Y8488997I0J-144229D01*
G01X3104100Y8663978D01*
G03X3212250Y8609903I108150J81112D01*
G37*
G36*
G01X2765950Y8552947D02*
G01X2765950Y8625047D01*
G03X2874100Y8679122I-0J135187D01*
G01X2874100Y8498872D01*
G03X2765950Y8552947I-108150J-81112D01*
G37*
G36*
G01X3153019Y9346969D02*
G01X3202036Y9195986D01*
G03X3104100Y9250997I-146971J-146971D01*
G01X3104100Y9450997D01*
G03X3153019Y9346969I168815J15868D01*
G37*
G36*
G01X2765950Y9304254D02*
G01X2765950Y9376354D01*
G03X2874100Y9430429I-0J135187D01*
G01X2874100Y9250997D01*
G03X2765950Y9304254I-108150J-83183D01*
G37*
G36*
G01X738850Y8818903D02*
G01X738850Y8891003D01*
G03X847000Y8937993I0J147950D01*
G01X847000Y8764828D01*
G03X738850Y8818903I-108150J-81112D01*
G37*
G36*
G01X3504695Y9952309D02*
G01X3504695Y10024409D01*
G03X3612845Y10078484I-0J135187D01*
G01X3612845Y9898234D01*
G03X3504695Y9952309I-108150J-81112D01*
G37*
G36*
G01X3504695Y10205441D02*
G01X3504695Y10277541D01*
G03X3612845Y10331616I-0J135187D01*
G01X3612845Y10151366D01*
G03X3504695Y10205441I-108150J-81112D01*
G37*
G36*
G01X1260267Y10015164D02*
G01X1188168Y10015164D01*
G03X1135582Y10123314I-137505J0D01*
G01X1314343Y10123314D01*
G03X1260267Y10015164I81112J-108150D01*
G37*
G36*
G01X2463745Y10277541D02*
G01X2463745Y10205441D01*
G03X2355595Y10151366I-0J-135187D01*
G01X2355595Y10331616D01*
G03X2463745Y10277541I108150J81112D01*
G37*
G36*
G01X476846Y622205D02*
G01X617914Y583074D01*
G03X713933Y526187I159150J159150D01*
G01X533732Y526187D01*
G03X476846Y622205I-216036J-63131D01*
G37*
G36*
G01X766446Y620001D02*
G01X982549Y667996D01*
G03X872196Y526187I513201J-513202D01*
G01X608099Y526187D01*
G03X766446Y620001I-104112J356273D01*
G37*
G36*
G01X935253Y4144806D02*
G01X851178Y4060731D01*
G03X662009Y4123787I-189169J-252225D01*
G01X872196Y4333974D01*
G03X935253Y4144806I315281J0D01*
G37*
G36*
G01X1596845Y4794863D02*
G01X1545863Y4845846D01*
G03X1584100Y4960556I-152947J114710D01*
G01X1711556Y4833100D01*
G03X1596845Y4794863I-0J-191184D01*
G37*
G36*
G01X1596845Y6318863D02*
G01X1545863Y6369846D01*
G03X1584100Y6484556I-152947J114710D01*
G01X1711556Y6357100D01*
G03X1596845Y6318863I-0J-191184D01*
G37*
G04 TearDrop End*

G04 Pad Start*
G54D11*
G01X2880000Y200000D03*
G01X1000000Y10800000D03*
G54D12*
G01X3725846Y6590747D03*
G01X3725846Y6844747D03*
G01X3725846Y7098747D03*
G01X3725846Y7352747D03*
G01X3725846Y7606747D03*
G01X3725846Y4385297D03*
G01X3725846Y4639297D03*
G01X3725846Y4893297D03*
G01X3725846Y5147297D03*
G01X3725846Y5401297D03*
G01X3725846Y9554197D03*
G01X3725846Y9300197D03*
G01X3725846Y9046197D03*
G01X3725846Y8792197D03*
G54D13*
G01X3475300Y651256D03*
G01X3475300Y1152144D03*
G01X3462570Y3181609D03*
G01X3462570Y3682497D03*
G01X3462570Y1916433D03*
G01X3462570Y2417321D03*
G54D12*
G01X358700Y4638396D03*
G01X358700Y5658409D03*
G01X2066900Y8317293D03*
G01X2066900Y9337306D03*
G01X2460346Y8320290D03*
G01X2460346Y9340304D03*
G01X479146Y6048997D03*
G01X479146Y6302997D03*
G01X479146Y6556997D03*
G01X479146Y6810997D03*
G01X479146Y7064997D03*
G01X479146Y7318997D03*
G01X479146Y7572997D03*
G01X479146Y7826997D03*
G01X479146Y8080997D03*
G01X479146Y8334997D03*
G01X479146Y8588997D03*
G01X479146Y8842997D03*
G01X479146Y9096997D03*
G01X479146Y9350997D03*
G01X479146Y9604997D03*
G01X2989100Y6048997D03*
G01X2989100Y6302997D03*
G01X2989100Y6556997D03*
G01X2989100Y6810997D03*
G01X2989100Y7064997D03*
G01X2989100Y7318997D03*
G01X2989100Y7572997D03*
G01X2989100Y7826997D03*
G01X2989100Y8080997D03*
G01X2989100Y8334997D03*
G01X2989100Y8588997D03*
G01X2989100Y8842997D03*
G01X2989100Y9096997D03*
G01X2989100Y9350997D03*
G01X2989100Y9604997D03*
G01X962000Y8837993D03*
G01X962000Y9858006D03*
G01X3727845Y9980500D03*
G01X3727845Y10234500D03*
G54D14*
G01X1235582Y10238314D03*
G01X2255595Y10238314D03*
G54D15*
G01X697196Y351187D03*
G01X2444796Y351187D03*
G01X697196Y4298787D03*
G01X2444796Y4298787D03*
G54D16*
G01X822700Y4983100D03*
G01X1734100Y4983100D03*
G01X822700Y6507100D03*
G01X1734100Y6507100D03*
G04 Pad End*

G04 Track Start*
G54D17*
G01X2904573Y8573853D02*
G01X3317927Y8573853D01*
G01X3532189Y8788114D02*
G01X3630787Y8788114D01*
G01X3317927Y8573853D02*
G01X3532189Y8788114D01*
G01X2456140Y8306500D02*
G01X2092085Y8306500D01*
G54D19*
G01X3394009Y1160495D02*
G01X1390995Y1160495D01*
G01X693459Y462960D01*
G01X3394009Y2440377D02*
G01X2754068Y3080317D01*
G01X2754068Y3681862D01*
G01X3368411Y3681862D01*
G54D20*
G01X360690Y789330D02*
G01X667862Y482158D01*
G54D17*
G01X471613Y8854953D02*
G01X940903Y8854953D01*
G01X953702Y8842154D01*
G01X2252070Y10241491D02*
G01X3651407Y10241491D01*
G01X3657096Y10235802D01*
G01X477249Y7842134D02*
G01X1671805Y7842134D01*
G01X2507994Y7005945D01*
G01X2507994Y5748817D01*
G01X3130870Y5125942D01*
G01X3605848Y5125942D01*
G01X3639978Y5160072D01*
G01X3628680Y4879050D02*
G01X3125222Y4879050D01*
G01X2332327Y5671945D01*
G01X2332327Y6942504D01*
G01X1715693Y7559138D01*
G01X506916Y7559138D01*
G01X481515Y7584539D01*
G01X3642902Y4893272D02*
G01X3628680Y4879050D01*
G01X481515Y7584539D02*
G01X481515Y7603223D01*
G01X521346Y7064997D02*
G01X1714803Y7064997D01*
G01X2010700Y6769100D01*
G01X2010700Y5537200D01*
G01X3166400Y4381500D01*
G01X3679849Y4381500D01*
G01X3683646Y4385297D01*
G01X479146Y8334997D02*
G01X526149Y8382000D01*
G01X1079500Y8382000D01*
G01X1224218Y8526718D01*
G01X1224218Y10226950D01*
G01X1235582Y10238314D01*
G01X2066900Y9337306D02*
G01X2070100Y9334107D01*
G01X2070100Y8890000D01*
G01X2371103Y8588997D01*
G01X2896146Y8588997D01*
G01X2460346Y8320290D02*
G01X2460346Y7813954D01*
G01X2654300Y6099979D02*
G01X2705282Y6048997D01*
G01X2896146Y6048997D01*
G01X2460346Y7813954D02*
G01X2654300Y7620000D01*
G01X2654300Y6099979D01*
G01X498817Y7346536D02*
G01X483648Y7331367D01*
G01X1662508Y7346536D02*
G01X498817Y7346536D01*
G01X2171700Y6837344D02*
G01X1662508Y7346536D01*
G01X2171700Y5618455D02*
G01X2171700Y6837344D01*
G01X3126577Y4663578D02*
G01X2171700Y5618455D01*
G01X3618462Y4663578D02*
G01X3126577Y4663578D01*
G01X3633631Y4648408D02*
G01X3618462Y4663578D01*
G01X425079Y8850686D02*
G01X475879Y8850686D01*
G01X134973Y8560580D02*
G01X425079Y8850686D01*
G01X330825Y5672315D02*
G01X280026Y5672314D01*
G01X134973Y5817367D02*
G01X134973Y8560580D01*
G01X280026Y5672314D02*
G01X134973Y5817367D01*
G01X2460346Y9340304D02*
G01X2978407Y9340304D01*
G01X2989100Y9350997D01*
G01X3098008Y9350997D01*
G01X3402808Y9046197D02*
G01X3725846Y9046197D01*
G01X3098008Y9350997D02*
G01X3402808Y9046197D01*
G01X3549231Y9563628D02*
G01X3633631Y9563628D01*
G01X3293718Y9819141D02*
G01X3549231Y9563628D01*
G01X1897225Y9819141D02*
G01X3293718Y9819141D01*
G01X1766392Y9688309D02*
G01X1897225Y9819141D01*
G01X1766392Y8510818D02*
G01X1766392Y9688309D01*
G01X1956490Y8320721D02*
G01X1766392Y8510818D01*
G01X2040891Y8320720D02*
G01X1956490Y8320721D01*
G01X2989100Y7064997D02*
G01X3063007Y7064997D01*
G01X3537257Y6590747D02*
G01X3725846Y6590747D01*
G01X3063007Y7064997D02*
G01X3537257Y6590747D01*
G01X3713091Y6857503D02*
G01X3725846Y6844747D01*
G01X3502601Y6857503D02*
G01X3713091Y6857503D01*
G01X3228301Y7131803D02*
G01X3502601Y6857503D01*
G01X2989100Y7572997D02*
G01X3082507Y7572997D01*
G01X3228301Y7427203D01*
G01X3228301Y7131803D01*
G01X3009894Y8060203D02*
G01X2989100Y8080997D01*
G01X3186101Y8060203D02*
G01X3009894Y8060203D01*
G01X3354901Y7891403D02*
G01X3186101Y8060203D01*
G01X3349569Y7248599D02*
G01X3354901Y7891403D01*
G01X3725846Y7098747D02*
G01X3499421Y7098747D01*
G01X3349569Y7248599D01*
G01X3725846Y7352747D02*
G01X3513757Y7352747D01*
G01X3481502Y7385003D01*
G01X3481502Y8102403D01*
G01X3248908Y8334997D01*
G01X2989100Y8334997D01*
G54D21*
G01X697196Y4298787D02*
G01X1314122Y3681862D01*
G01X2754068Y3681862D01*
G54D17*
G01X358700Y4638396D02*
G01X360690Y4638396D01*
G54D20*
G01X360690Y4638396D02*
G01X360690Y789330D01*
G54D17*
G01X482990Y8096978D02*
G01X1181733Y8096978D01*
G01X1505970Y8421215D01*
G01X1505970Y9812019D01*
G01X1682309Y9988359D01*
G01X3645719Y9988359D01*
G01X479146Y6048997D02*
G01X1275997Y6048997D01*
G01X1734100Y6507100D01*
G01X1389395Y4638396D02*
G01X1734100Y4983100D01*
G01X360690Y4638396D02*
G01X1389395Y4638396D01*
G04 Track End*

M02*

