G04 Layer: DrillDrawingLayer*
G04 EasyEDA Pro v2.2.43.4, 2025-11-30 00:10:42*
G04 Gerber Generator version 0.3*
G04 Scale: 100 percent, Rotated: No, Reflected: No*
G04 Dimensions in millimeters*
G04 Leading zeros omitted, absolute positions, 4 integers and 5 decimals*
G04 Generated by custom config*
%FSLAX45Y45*%
%MOMM*%
%AMIconRect*4,1,4,0.2,-0.2,-0.2,-0.2,-0.2,0.2,0.2,0.2,0.2,-0.2,0*4,0,4,0.166667,-0.166667,0.166667,0.166667,-0.166667,0.166667,-0.166667,-0.166667,0.166667,-0.166667,0*%
%AMIconTriangle*4,1,3,-0.242567,0.171767,0.242567,0.171767,0,-0.2706,-0.242567,0.171767,0*4,0,3,-0.189767,0.1386,0,-0.1953,0.190167,0.1386,-0.189767,0.1386,0*%
%ADD10IconRect*%
%ADD11C,0.44X0.373333*%
%ADD12IconTriangle*%
G75*


G04 Drill Drawing Start*
G54D10*
G01X1000000Y10800000D03*
G01X2880000Y200000D03*
G54D11*
G01X697196Y351187D03*
G01X697196Y4298787D03*
G01X822690Y6507092D03*
G01X822705Y4983087D03*
G01X1734105Y4983087D03*
G01X1734105Y6507092D03*
G01X2444796Y351187D03*
G01X2444796Y4298787D03*
G01X3462570Y1916433D03*
G01X3462570Y2417321D03*
G01X3462570Y3181609D03*
G01X3462570Y3682497D03*
G01X3475300Y651256D03*
G01X3475300Y1152144D03*
G54D12*
G01X358700Y4638424D03*
G01X358700Y5658381D03*
G01X479146Y9096997D03*
G01X479146Y9350997D03*
G01X479146Y8334997D03*
G01X479146Y8588997D03*
G01X479146Y9604997D03*
G01X479146Y7572997D03*
G01X479146Y7826997D03*
G01X479146Y8080997D03*
G01X479146Y8842997D03*
G01X479146Y6810997D03*
G01X479146Y7064997D03*
G01X479146Y7318997D03*
G01X479146Y6048997D03*
G01X479146Y6302997D03*
G01X479146Y6556997D03*
G01X962000Y8838021D03*
G01X962000Y9857979D03*
G01X1235610Y10238314D03*
G01X2066900Y9337279D03*
G01X2066900Y8317321D03*
G01X2255567Y10238314D03*
G01X2460346Y9340276D03*
G01X2460346Y8320318D03*
G01X2989100Y6048997D03*
G01X2989100Y6302997D03*
G01X2989100Y6556997D03*
G01X2989100Y6810997D03*
G01X2989100Y7064997D03*
G01X2989100Y7318997D03*
G01X2989100Y7572997D03*
G01X2989100Y7826997D03*
G01X2989100Y8080997D03*
G01X2989100Y8334997D03*
G01X2989100Y8588997D03*
G01X2989100Y8842997D03*
G01X2989100Y9096997D03*
G01X2989100Y9350997D03*
G01X2989100Y9604997D03*
G01X3725846Y4385297D03*
G01X3725846Y4639297D03*
G01X3725846Y4893297D03*
G01X3725846Y5147297D03*
G01X3725846Y5401297D03*
G01X3725846Y6590747D03*
G01X3725846Y6844747D03*
G01X3725846Y7098747D03*
G01X3725846Y7352747D03*
G01X3725846Y7606747D03*
G01X3725846Y8792197D03*
G01X3725846Y9046197D03*
G01X3725846Y9300197D03*
G01X3725846Y9554197D03*
G01X3727845Y9980500D03*
G01X3727845Y10234500D03*
G04 Drill Drawing End*

M02*

