G04 Layer: TopLayer*
G04 EasyEDA Pro v2.2.43.4, 2025-11-30 00:10:42*
G04 Gerber Generator version 0.3*
G04 Scale: 100 percent, Rotated: No, Reflected: No*
G04 Dimensions in millimeters*
G04 Leading zeros omitted, absolute positions, 4 integers and 5 decimals*
G04 Generated by custom config*
%FSLAX45Y45*%
%MOMM*%
%ADD10C,1.524*%
%ADD11R,2.3X2.0*%
%ADD12C,4.0*%
%ADD13R,2.0X2.3*%
%ADD14R,3.5X3.5*%
%ADD15R,3.0041X3.0*%
%ADD16R,3.0X3.0*%
G75*


G04 Pad Start*
G54D10*
G01X2880000Y200000D03*
G01X1000000Y10800000D03*
G54D11*
G01X3725846Y6590747D03*
G01X3725846Y6844747D03*
G01X3725846Y7098747D03*
G01X3725846Y7352747D03*
G01X3725846Y7606747D03*
G01X3725846Y4385297D03*
G01X3725846Y4639297D03*
G01X3725846Y4893297D03*
G01X3725846Y5147297D03*
G01X3725846Y5401297D03*
G01X3725846Y9554197D03*
G01X3725846Y9300197D03*
G01X3725846Y9046197D03*
G01X3725846Y8792197D03*
G54D12*
G01X3475300Y651256D03*
G01X3475300Y1152144D03*
G01X3462570Y3181609D03*
G01X3462570Y3682497D03*
G01X3462570Y1916433D03*
G01X3462570Y2417321D03*
G54D11*
G01X358700Y4638396D03*
G01X358700Y5658409D03*
G01X2066900Y8317293D03*
G01X2066900Y9337306D03*
G01X2460346Y8320290D03*
G01X2460346Y9340304D03*
G01X479146Y6048997D03*
G01X479146Y6302997D03*
G01X479146Y6556997D03*
G01X479146Y6810997D03*
G01X479146Y7064997D03*
G01X479146Y7318997D03*
G01X479146Y7572997D03*
G01X479146Y7826997D03*
G01X479146Y8080997D03*
G01X479146Y8334997D03*
G01X479146Y8588997D03*
G01X479146Y8842997D03*
G01X479146Y9096997D03*
G01X479146Y9350997D03*
G01X479146Y9604997D03*
G01X2989100Y6048997D03*
G01X2989100Y6302997D03*
G01X2989100Y6556997D03*
G01X2989100Y6810997D03*
G01X2989100Y7064997D03*
G01X2989100Y7318997D03*
G01X2989100Y7572997D03*
G01X2989100Y7826997D03*
G01X2989100Y8080997D03*
G01X2989100Y8334997D03*
G01X2989100Y8588997D03*
G01X2989100Y8842997D03*
G01X2989100Y9096997D03*
G01X2989100Y9350997D03*
G01X2989100Y9604997D03*
G01X962000Y8837993D03*
G01X962000Y9858006D03*
G01X3727845Y9980500D03*
G01X3727845Y10234500D03*
G54D13*
G01X1235582Y10238314D03*
G01X2255595Y10238314D03*
G54D14*
G01X697196Y351187D03*
G01X2444796Y351187D03*
G01X697196Y4298787D03*
G01X2444796Y4298787D03*
G54D16*
G01X822700Y4983100D03*
G01X1734100Y4983100D03*
G01X822700Y6507100D03*
G01X1734100Y6507100D03*
G04 Pad End*

M02*

